<?xml version="1.0" encoding="UTF-8"?>
<svg id="Layer_2" data-name="Layer 2" xmlns="http://www.w3.org/2000/svg" viewBox="0 0 421.73 146.45">
  <defs>
    <style>
      .cls-1 {
        fill: #d84116;
      }
    </style>
  </defs>
  <g id="Layer_13" data-name="Layer 13">
    <g id="Logo">
      <path class="cls-1" d="M66.12,96.65c2.53,2.53,3.55,13.94,0,14.29-28.62,2.8-51.32,1.63-63.6.08-3.54-.45-3.18-11.88,0-14.29,2.75-2.09,12.38-.29,12.38-.29V14.29H.62V0h87.37c5.01,0,9.07,4.06,9.07,9.07v26.65h-16.07v-7.14c0-1.46-.13-2.96-.38-4.51s-.64-3.08-1.16-4.6-1.27-2.76-2.25-3.73-2.1-1.45-3.35-1.45h-21.29c-5.01,0-9.07,4.06-9.07,9.07v30.22h16.07v-16.07h14.29v46.44h-14.29v-16.07h-16.07v19.5c0,5.01,4.06,9.07,9.07,9.07,0,0,10.75-2.61,13.57.21Z"/>
      <path class="cls-1" d="M95.78,28.58h27.73l5.63,10.85c5.27-8.42,12.73-12.64,22.37-12.64,6.46,0,11.59,1.99,15.38,5.96,3.8,3.97,5.69,9.13,5.69,15.47,0,3.96-1.39,7.33-4.17,10.11-2.78,2.78-6.15,4.17-10.11,4.17s-7.33-1.39-10.11-4.17c-2.78-2.78-4.17-6.15-4.17-10.11,0-1.61.25-3.16.76-4.64-.8-.48-1.65-.71-2.55-.71-1.99,0-4.06,1.3-6.18,3.91-2.13,2.6-4.17,6.5-6.14,11.68l-.18,38s16.17-3.47,19.65,0c2.53,2.53,3.75,12.73.22,13.97-9.28,3.26-45.06,2.05-53.8.32-3.5-.69-1.8-11.62,0-14.29,1.25-1.85,8.93,0,8.93,0v-53.58h-8.93v-14.29Z"/>
      <path class="cls-1" d="M191.03,30.14c5.22-2.05,10.77-3.08,16.63-3.08s11.41,1.03,16.63,3.08c5.22,2.05,9.77,4.92,13.64,8.6,3.87,3.68,6.93,8.21,9.18,13.6,2.25,5.39,3.37,11.25,3.37,17.59s-1.12,12.2-3.37,17.59-5.31,9.92-9.18,13.6c-3.87,3.68-8.42,6.54-13.64,8.6-5.22,2.05-10.77,3.08-16.63,3.08s-11.41-1.03-16.63-3.08-9.76-4.92-13.62-8.6c-3.85-3.68-6.91-8.21-9.15-13.6-2.25-5.39-3.37-11.25-3.37-17.59s1.12-12.2,3.37-17.59c2.25-5.39,5.3-9.92,9.15-13.6,3.85-3.68,8.39-6.54,13.62-8.6ZM207.66,41.35c-2.08,0-3.94.3-5.58.89s-3.14,1.58-4.51,2.95c-1.37,1.37-2.49,3.14-3.37,5.31s-1.56,4.88-2.05,8.13c-.49,3.24-.74,7.01-.74,11.3s.25,8.05.74,11.3c.49,3.24,1.18,5.95,2.05,8.13s2,3.94,3.37,5.31c1.37,1.37,2.87,2.35,4.51,2.95s3.5.89,5.58.89c2.62,0,4.9-.5,6.83-1.5s3.62-2.6,5.07-4.8,2.53-5.16,3.26-8.89c.73-3.72,1.09-8.19,1.09-13.4s-.36-9.67-1.09-13.4c-.73-3.72-1.82-6.68-3.26-8.89-1.44-2.2-3.13-3.8-5.07-4.8-1.93-1-4.21-1.5-6.83-1.5Z"/>
      <path class="cls-1" d="M245.7,0h24.86c5.01,0,9.07,4.06,9.07,9.07v87.37s7.35-1.58,8.93,0c2.53,2.53,3.24,12.33.06,13.97-6.35,3.26-40.83,1.55-42.93.32-3.64-2.12-3.12-12.49,0-14.29,1.93-1.12,8.93,0,8.93,0V14.29h-8.93V0Z"/>
      <path class="cls-1" d="M295.49,0h24.86c5.01,0,9.07,4.06,9.07,9.07v87.37s7.35-1.58,8.93,0c2.53,2.53,3.24,12.33.06,13.97-6.35,3.26-40.83,1.55-42.93.32-3.64-2.12-3.12-12.49,0-14.29,1.93-1.12,8.93,0,8.93,0V14.29h-8.93V0Z"/>
      <path class="cls-1" d="M327.66,138.28c-1.58-2.38-2.37-5.02-2.37-7.9,0-3.96,1.39-7.33,4.17-10.11,2.78-2.78,6.15-4.17,10.11-4.17s7.33,1.39,10.11,4.17c2.78,2.78,4.17,6.15,4.17,10.11,0,.83-.07,1.64-.22,2.41.12.03.22.04.31.04,2.14,0,4.76-3.54,7.86-10.63l3.35-7.68-31.48-71.66h-8.39v-14.29h50.01v14.29h-14.69l14.15,32.15c1.82,4.23,3.13,7.8,3.93,10.72.8-2.92,2.11-6.49,3.93-10.72l14.11-32.15h-12.5v-14.29h37.51v14.29h-9.47l-29.83,67.87c-1.55,3.51-2.94,6.54-4.17,9.09-1.24,2.55-2.62,5.13-4.15,7.77-1.53,2.63-3.01,4.86-4.44,6.68s-3.04,3.54-4.84,5.18-3.67,2.94-5.6,3.91-4.08,1.73-6.43,2.28-4.88.83-7.59.83c-2.53,0-4.76-.2-6.7-.6s-3.58-1-4.93-1.79c-1.35-.79-2.48-1.64-3.37-2.55s-1.74-1.99-2.55-3.24Z"/>
    </g>
  </g>
</svg>