<?xml version="1.0" encoding="UTF-8"?>
<svg id="Layer_2" data-name="Layer 2" xmlns="http://www.w3.org/2000/svg" viewBox="0 0 171.44 187.59">
  <defs>
    <style>
      .cls-1, .cls-2, .cls-3, .cls-4 {
        fill: #d84116;
      }

      .cls-1, .cls-5 {
        stroke-width: 0px;
      }

      .cls-2 {
        font-family: OrelegaOne-Regular, 'Orelega One';
        font-size: 37.73px;
      }

      .cls-3 {
        font-size: 23.22px;
      }

      .cls-3, .cls-4 {
        font-family: AveriaLibre-Regular, 'Averia Libre';
      }

      .cls-6 {
        letter-spacing: -.03em;
      }

      .cls-5 {
        fill: #fffff4;
      }

      .cls-7 {
        letter-spacing: 0em;
      }

      .cls-8 {
        letter-spacing: -.02em;
      }

      .cls-4 {
        font-size: 25.99px;
      }
    </style>
  </defs>
  <g id="Layer_3" data-name="Layer 3">
    <circle class="cls-5" cx="84.92" cy="92.67" r="81.69"/>
  </g>
  <g id="TEXTS">
    <g>
      <g>
        <path class="cls-1" d="M97.97,49h.03s-.03,0-.02,0c0,0,.02-.01.03-.02.08-.15.12-.33.16-.51-1.07-.33-2.15-.61-3.24-.85-.23.36-.52.67-.83,1.02,1.22.26,2.44.57,3.65.94.08-.17.15-.35.23-.52,0-.02,0-.03,0-.05ZM96.8,49.12c-.11-.1-.16-.29-.29-.57.28-.1.48-.24.57-.17.08.05.08.35.03.53-.02.09-.27.25-.31.21Z"/>
        <path class="cls-1" d="M149.99,94.91l-.3-.11c.09.07.19.1.3.11Z"/>
        <path class="cls-1" d="M155.26,59.04c-.34,1.13-.58,2.27-1.57,3.21.03-.41,0-.7.07-.78.69-.69.86-1.51.88-2.44,0-.32.04-.44.31-.62-.18-.37-.36-.73-.55-1.1-.13.22-.35.33-.83.54.25-.38.44-.65.63-.94-.18-.36-.37-.71-.56-1.07-.04.08-.09.17-.13.25-.07-.05-.15-.11-.22-.16.07-.12.14-.25.2-.37-.15-.28-.3-.56-.45-.83-.5,1.29-1,2.57-1.5,3.86.26.51.51,1.01.75,1.52.03,0,.05-.02.08-.03-.02.03-.03.05-.05.08.23.48.46.97.68,1.46,0,0,0,0,0,0,0,0,0,0,0,0,.67,1.47,1.28,2.96,1.86,4.47.16-.65.39-1.28.94-1.77.15-.14.28-.33.41-.5.09.05.17.1.26.15-.57.96-.84,2.05-1.25,3.1.4,1.11.78,2.23,1.13,3.36.18-.18.38-.32.56-.54.06.6-.1.93-.35,1.22.12.39.23.77.34,1.16.14-.1.32-.16.51-.16-.02.36-.1.77-.22,1.22.77,2.89,1.37,5.82,1.79,8.79.08-.14.16-.29.24-.43.07.05.14.09.21.14-.13.27-.25.54-.38.82.07.55.14,1.1.2,1.65.15-.37.35-.72.53-1.08.07.05.14.1.21.15-.21.58-.43,1.16-.65,1.77.1.95.18,1.91.23,2.87.02,0,.03,0,.05-.01-.02.02-.03.04-.05.06.13,2.14.17,4.29.11,6.44.09-.14.17-.27.26-.41.05.04.09.08.14.12-.13.24-.27.48-.4.73,0,0,0,0,0,0-.04,1.15-.1,2.3-.19,3.46l-8.76-3.22c-.26,1.11-.89,1.94-1.32,2.85l2.32.85c.05-.05.11-.1.16-.15.03.06.06.12.1.18-.02.02-.03.03-.05.05l1.86.68c.14-.2.31-.43.52-.73-.07.44-.1.68-.17.86l5.02,1.84c-.04.33-.09.66-.13.99l-14.87-5.46c-.06.1-.11.21-.17.31,0,0-.26-.16-.26-.18.03-.08.07-.16.1-.24l-1.97-.72c-.08.16-.22.29-.33.44-.06-.04-.12-.09-.18-.13.06-.14.13-.28.19-.42l-1.88-.69c-.12.22-.28.4-.44.59-.13-.08-.26-.17-.39-.25.09-.17.19-.35.29-.54l-11.4-4.18c-.1.17-.2.34-.3.51-.07-.07-.15-.13-.22-.2.1-.13.19-.26.29-.4l-21.16-7.77c-.1.38-.23.74-.42,1.1l4.36,1.6s-.02-.02-.04-.03c.21-.33.42-.66.62-.98.06.05.12.1.19.15-.17.32-.34.64-.51.96l8.38,3.08s.01-.01.02-.02c.01.01.03.03.04.04l7.01,2.57s.08-.09.11-.14c0,.06-.02.11-.03.17l7.3,2.68s0,0,.01,0c0,0,0,0,0,0l9.01,3.31c.11-.14.22-.28.34-.42.04.06.09.12.13.18-.08.1-.17.21-.25.31l16.28,5.98c-.74,4.89-1.98,9.77-3.75,14.58-1.62,4.42-3.62,8.59-5.94,12.49l-11.17-4.1c-.05.1-.1.19-.15.3-.02-.15-.04-.27-.05-.37l-13.87-5.09c-.05.1-.11.21-.16.31-.05-.05-.1-.1-.15-.14.05-.07.11-.15.16-.22l-22.67-8.32c-.06.09-.11.19-.17.28,0,0-.18-.09-.17-.13.02-.08.05-.17.07-.25l-23.23-8.52c.04.05.08.1.07.1-.08.13-.17.24-.26.35-.05-.08-.11-.15-.16-.23.08-.09.16-.18.24-.27l-45.63-16.75s-.03.06-.04.09c-.02-.04-.02-.08-.03-.12l-3.51-1.29c-.15.33-.29.65-.44.98-.06-.03-.11-.06-.17-.1l.49-.92-12.95-4.75c-.06.12-.14.23-.21.35-.05-.06-.16-.13-.14-.17.02-.09.07-.17.11-.26l-4.19-1.54c.76-4.48,1.93-8.95,3.55-13.37,1.77-4.82,3.98-9.34,6.57-13.55l3.76,1.38c.03-.07.06-.13.09-.2.07.04.14.09.22.13-.02.05-.05.1-.07.16l6.68,2.45c.08-.07.21-.13.39-.27-.05.15-.08.26-.12.37l.96.35s.03-.05.03-.08c.11-.34.03-.74.17-1.1l-2.02-.74c-.05.05-.1.11-.15.16-.05-.06-.09-.12-.14-.18.02-.02.03-.05.05-.07l-2.03-.74c-.06.13-.11.27-.17.4-.06-.03-.13-.05-.19-.08.05-.13.1-.27.15-.4l-2.11-.78c-.08.14-.16.29-.24.43-.07-.06-.13-.13-.2-.2.07-.11.14-.21.21-.32l-4.63-1.7c.18-.28.36-.56.54-.84l.81.3c.1-.27.2-.54.3-.81.08.05.17.11.25.16-.11.24-.23.48-.34.73l2.11.78s-.05-.04-.08-.06c.19-.32.37-.64.56-.96.07.06.14.11.2.17-.18.3-.35.61-.53.91l4.52,1.66c-.04-1.1.24-1.37,1.06-1.21.3.05.69-.25,1.04-.39.04.11.08.21.11.32-.65.46-1.3.92-1.96,1.39l17.83,6.54s0-.03.01-.04c.05.02.09.05.14.07,0,0,0,.02,0,.02l2.17.8s.12-.08.17-.12c0,.06.02.13.02.19l14.2,5.21c0-.2.15-.34.58-.73-.12.32-.21.58-.3.83l12.81,4.7s0,0,0,0c0,0,0,0,0,0l9.52,3.49c.07-.13.14-.26.22-.39.09.07.17.14.26.21-.07.09-.13.18-.2.27l2.13.78c.03-.08.05-.17.08-.25.07.02.15.05.23.07-.03.09-.06.18-.09.26l6.64,2.44s-.01-.08-.02-.12c.07-.05.14-.11.21-.16.01.08.06.19.03.25-.01.03-.05.06-.08.09l4.95,1.82c.17-.23.33-.46.5-.69.05.05.1.11.16.16-.13.21-.25.42-.37.64l4.26,1.56c.03-.39.16-.77.8-.94-.21.34-.34.7-.45,1.07l10.42,3.83s.02-.06.04-.08c.43-.57.73-1.09.62-1.85-.04-.25.25-.66.4-1.02l-1.92-.71s.01,0,.02.01c-.22.39-.43.78-.65,1.17-.09-.07-.18-.14-.27-.21.21-.36.43-.71.64-1.07l-3.42-1.26c-.23.82-.47,1.65-1.14,2.31.21-.89.36-1.72.6-2.51l-4.19-1.54c-.05.1-.1.21-.15.32-.05-.16-.08-.29-.1-.42l-7.03-2.58c-.17.19-.33.39-.53.62.01-.33.05-.58.11-.77l-1.88-.69c-.09.14-.18.27-.26.41-.06-.05-.12-.09-.18-.14.04-.13.07-.27.11-.4l-4.3-1.58c-.16.18-.3.35-.46.55.04-.37.06-.56.13-.67l-27.1-9.95c0,.1,0,.19-.04.25-.07.13-.27.17-.42.25-.01-.14-.08-.3-.03-.41.03-.07.08-.14.14-.21l-4.43-1.63c-.12.23-.24.48-.39.78-.09-.54-.1-.67.18-.85l-6.99-2.57c.37-.35.75-.68,1.13-1.02.07-.1.16-.17.27-.23,4.5-3.85,9.66-6.72,15.15-8.53.15-.13.34-.28.59-.48-.04.11-.07.21-.11.32.31-.1.63-.19.94-.29.02-.06.04-.13.06-.19.08.03.17.06.25.1.35-.1.71-.2,1.06-.29,0-.21,0-.42.09-.54.22-.29.43-.56.6-.84-.9.21-1.8.46-2.69.73-.06.14-.12.27-.18.41-.06-.12-.1-.22-.14-.31-4.48,1.38-8.76,3.45-12.67,6.16.02.03.03.05.05.08-.28.35-.57.71-1,1.25.01-.31.06-.54.12-.74-.44.32-.88.65-1.31.98,0,.13.02.24.03.33-.11.03-.24.09-.34.07-.02,0-.04-.05-.05-.11-1.06.84-2.08,1.73-3.07,2.68l-.72-.27c.8-.78,1.63-1.53,2.48-2.25.04-.06.08-.12.11-.18.02.01.04.03.06.04,4.89-4.08,10.48-7.06,16.41-8.85.17-.21.47-.48.94-.91-.1.24-.21.48-.31.71.29-.08.58-.16.87-.23.2-.29.42-.56.63-.83.07.1.15.19.22.29-.1.13-.21.27-.31.4.4-.1.8-.19,1.2-.28.03-.22.02-.45-.04-.71-.01-.05.46-.4.95-.81-.16.54-.29.97-.42,1.4.81-.17,1.62-.32,2.43-.45.02-.04.04-.08.06-.12.05.03.11.06.16.09,1.76-.27,3.54-.45,5.33-.52-.03-.03-.06-.05-.09-.08.19-.3.38-.6.57-.91.07.06.14.12.21.18-.15.27-.31.53-.46.8.84-.03,1.68-.03,2.52-.01.1-.05.21-.09.33-.12-.02.04-.04.08-.06.12,1.21.03,2.43.11,3.64.23.05-.08.1-.17.15-.25.08.05.17.09.25.14-.02.05-.04.1-.06.15.26.03.52.06.79.1.28-.98,1.05-1.85,1.01-2.89,0-.04,0-.09,0-.14-.23-.03-.46-.06-.7-.09-.09.72-.4,1.14-.93,1.54-.15-.74.09-1.17.5-1.59-.27-.03-.55-.07-.82-.09-.14.41-.29.82-.44,1.23-.12.32-.25.65-.44.92-.08.12-.36.16-.45.08-.09-.08-.09-.51-.05-.55.54-.44.75-1.08.93-1.73-.31-.03-.62-.05-.94-.07-.14.38-.3.5-.74.83-.06-.37,0-.64.14-.87-.3-.02-.59-.03-.89-.04-.26,1.13-.26,1.14-1,1.85-.03-1.06.6-1.31.99-1.85-.86-.04-1.72-.06-2.58-.05-.15.31-.31.61-.49.9-.06-.33,0-.62.12-.9-2.71.04-5.4.31-8.05.79-.1.17-.19.33-.29.49-.1-.08-.2-.17-.29-.25.04-.06.08-.11.12-.17-.82.16-1.63.34-2.43.53-.08.16-.15.32-.23.48-.09.17-.3.26-.48.38,0,.02-.02.04-.02.07h0s0,0,0,0c0,0,0,.01-.01.02.06.26.12.54.25,1.09-.38-.2-.53-.28-.68-.37.14-.24.29-.48.43-.73,0-.02,0-.04-.01-.06.01-.01.03-.02.05-.03.08-.25.17-.5.25-.74-5.45,1.37-10.67,3.67-15.42,6.83,0,0,.02.01.03.02-.24.55-.49,1.1-.85,1.93-.24-.69-.13-1.11.09-1.45-.33.23-.66.46-.99.7-.34.65-.58,1.1-.81,1.54-.08-.37-.09-.69,0-.95-.36.27-.71.55-1.07.84-.1.2-.18.35-.26.5-.06-.01-.13-.03-.19-.04,0-.04,0-.07.01-.11-1.46,1.2-2.86,2.48-4.19,3.86l-1.79-.66c-.2.17-.4.34-.61.51-.03-.09-.07-.17-.1-.26.14-.12.27-.24.41-.37l-1.27-.47s-.01.04-.02.07c0-.03-.01-.05-.02-.08l-1.14-.42s.06.04.09.07c-.16.28-.32.56-.48.84-.07-.05-.14-.11-.21-.16.15-.27.29-.53.44-.8l-3.42-1.26c-.16.65-.36,1.28-.91,1.74.28-.61.68-1.18.62-1.85l-11.38-4.18c-.09.16-.23.28-.35.41-.06-.08-.12-.16-.18-.24.07-.1.13-.19.2-.29l-3.34-1.22c-.22.69-.14,1.62-1.27,1.9.22-.5.29-.83.44-.99.31-.31.54-.61.64-.98l-1.09-.4c-.07.11-.15.22-.22.33-.06-.09-.13-.17-.19-.26.2-.24.4-.47.6-.71,0,0,.01.01.02.02.59-.8,1.19-1.59,1.81-2.36,0-.55.2-.78.64-.8.73-.89,1.48-1.76,2.25-2.61-.11-.06-.2-.09-.22-.17-.16-.63.2-.91.94-1.38-.21.57-.34.94-.47,1.27,1.84-2.01,3.78-3.92,5.81-5.7,0-.01,0-.02.01-.03.1-.17.26-.29.39-.43.02.02.03.04.05.06,9.59-8.3,21.14-14.05,33.5-16.71.13-.21.28-.4.43-.6.07.09.15.17.22.26-.06.08-.11.16-.17.24.37-.08.73-.15,1.1-.22-.02-.87.51-1.1.68-1.56.08.07.17.13.25.2-.23.39-.46.78-.79,1.33,1.42-.27,2.86-.5,4.3-.69-.01-.12-.05-.25,0-.34.08-.21.22-.4.33-.6.05.14.1.28.16.43-.04.14-.06.32-.13.4-.04.04-.09.07-.14.09,1.32-.17,2.65-.3,3.98-.4.1-.13.21-.26.31-.39.05.07.11.15.16.22-.04.05-.07.09-.11.14,1.28-.09,2.56-.14,3.85-.17.16-.18.43-.39.84-.71-.11.26-.2.48-.29.71.26,0,.53,0,.79,0-.13-.2-.03-.45.22-.7.55-.55.81-1.12.74-1.96-.01-.13.06-.29.15-.46-.78-.01-1.55,0-2.33,0-.27.74-.54,1.47-.89,2.17-.1-.05-.19-.1-.29-.14.27-.67.55-1.35.82-2.02-.34,0-.68.01-1.03.03-.15.26-.32.55-.56.97-.07-.45-.04-.75.05-.95-1.26.05-2.52.13-3.78.24-.07.16-.14.33-.22.52-.05-.21-.08-.37-.1-.49-1.83.17-3.66.41-5.47.71-.16.31-.34.41-.8.64.15-.21.28-.39.4-.57-17.87,3.04-34.36,12.24-46.31,26.15-.08.19-.21.35-.4.47-.87,1.02-1.71,2.07-2.52,3.15-.05.14-.1.28-.15.42-.04-.02-.08-.04-.13-.06-.68.9-1.34,1.82-1.98,2.76-.06.07-.11.15-.16.23-2.8,4.12-5.23,8.57-7.24,13.3-.21.78-.44,1.55-.81,2.21-.52.93-.41,2.23-1.23,3.11-1.61,4.71-2.74,9.47-3.42,14.24.06-.03.13-.07.2-.11-.09.13-.17.25-.24.37-.22,1.55-.39,3.1-.51,4.64.09-.16.19-.33.28-.49.05.04.11.08.16.12-.15.28-.31.57-.46.85,0,0-.01,0-.02-.01-.08,1.11-.14,2.23-.17,3.34.01-.05.02-.1.03-.16.17.21.31.31.29.37-.09.33-.22.65-.34.97-.04,3.16.11,6.31.45,9.42.13-.12.29-.26.48-.43-.13.56-.2,1.01-.39,1.19.95,8.03,3.14,15.82,6.44,23.12,0,0,0-.01.01-.02.07.04.15.08.22.12-.03.07-.06.14-.09.22.22.47.44.94.66,1.41.06-.09.12-.18.2-.28,0,.24-.02.43-.06.58.24.49.48.97.73,1.46.05-.01.09-.03.14-.04-.03.05-.06.1-.09.15.93,1.81,1.93,3.59,3,5.32.16-.61.28-.65.96-.78-.27.33-.55.65-.83.98.26.42.52.83.78,1.24.19-.31.38-.61.57-.92.07.07.15.14.22.21-.21.32-.42.64-.62.96,1.91,2.93,4.02,5.73,6.32,8.39.04-.04.09-.09.13-.13.08.06.17.12.25.19-.04.08-.09.16-.13.24.86.99,1.75,1.96,2.67,2.91.04-.55.47-.79.56-1.18.08.07.16.13.23.2-.18.35-.37.7-.62,1.16.93.96,1.9,1.9,2.88,2.81-.03-.29-.07-.46-.03-.53.2-.3.43-.57.65-.85.06.1.12.19.18.29-.23.33-.45.66-.78,1.12.27.25.54.5.82.75.18-.17.43-.27.69-.29-.07.25-.13.49-.2.74.27.23.53.47.8.7.06-.09.11-.18.15-.28.28-.63-.31-1.56.9-2.1-.15.57-.24.96-.37,1.35-.14.41-.28.83-.42,1.24.57.49,1.16.97,1.75,1.45.14-.22.29-.43.43-.65.07.05.13.11.2.16-.12.23-.24.47-.36.71.28.23.57.45.85.67.25-.75.19-1.75,1.05-2.11-.35,1.19-.56,1.89-.73,2.36.62.48,1.25.94,1.89,1.4.06-.13.12-.26.18-.39.07.04.14.08.22.12-.06.14-.12.28-.18.43.95.68,1.93,1.34,2.92,1.98.02-.05.04-.1.06-.15.08.02.17.03.25.05-.02.08-.05.17-.07.25.65.41,1.3.82,1.96,1.22.06-.3.18-.56.58-.74-.13.29-.23.59-.31.9.76.45,1.53.89,2.31,1.32.12-.41.22-.83.38-1.24.01.41-.06.88-.18,1.34.3.16.6.32.9.48.05-.09.11-.17.16-.26.06.05.13.11.2.16-.04.08-.08.15-.11.23.59.31,1.19.61,1.79.91.06-.23.33-.51.85-1.05.07.06.13.11.2.17-.15.38-.31.75-.47,1.16,1.03.5,2.07.97,3.13,1.42.04-.05.08-.1.13-.16-.01.07-.02.14-.03.21,1.24.53,2.5,1.03,3.77,1.5,1.51.56,3.03,1.05,4.56,1.51,0,0,0,0,0,0,.15-.31.29-.63.45-.93.02-.03.14.02.21.03-.1.34-.19.68-.29,1.02.28.08.57.17.85.25.31-.96.64-1.95,1.09-2.95-.37-.1-.74-.21-1.11-.31,0,0-.01.02-.02.03-.03-.02-.06-.04-.09-.06-1.53-.45-3.06-.96-4.58-1.52-.02,0-.05-.02-.07-.03-.04.09-.09.18-.13.26-.04-.12-.07-.24-.09-.35-.73-.27-1.44-.55-2.15-.84-.15.12-.34.22-.62.31.09-.17.18-.32.25-.46-.67-.28-1.33-.56-1.99-.85-.08.14-.16.29-.26.42-.11-.06-.23-.12-.34-.18.06-.14.11-.29.17-.43-.64-.29-1.28-.59-1.91-.9-.16.2-.33.4-.52.63-.2-.52-.07-.71.11-.83-1.89-.94-3.73-1.95-5.51-3.03-.06.12-.11.24-.17.36-.03-.02-.09-.05-.09-.06.04-.13.09-.25.14-.38-.69-.42-1.38-.86-2.06-1.3-.01.19-.01.31-.06.4-.15.29-.34.56-.7,1.12-.1-.97.24-1.24.6-1.62-.23-.15-.46-.31-.69-.46-.16.52-.31,1.04-.47,1.56-.18.59-.46,1.04-1.15,1.08.19-.43.32-.71.44-.99.18-.41.51-.86.51-1.23,0-.3.07-.54.16-.77-.59-.4-1.17-.81-1.74-1.23-.21.35-.37.64-.61,1.05-.09-.67.04-.98.4-1.2-.33-.24-.66-.49-.99-.74-.05.03-.1.07-.15.09-.02.01-.12-.21-.13-.31-.64-.49-1.27-.99-1.9-1.5-.12.46-.21.82-.37,1.42-.44-.81-.34-1.17.26-1.51-.26-.22-.52-.43-.78-.65-.22.68-.43,1.35-.65,2.03-.09.26-.4.45-.61.67-.08-.06-.16-.13-.25-.2.72-.86.97-1.78.92-2.8,0-.06.01-.12.03-.18-.91-.79-1.79-1.59-2.66-2.42-.12.19-.26.4-.42.66-.06-.45-.01-.75.1-.96-3.46-3.34-6.57-6.99-9.3-10.89-.22.59-.44,1.19-.65,1.78-.05-.01-.09-.03-.14-.04.17-.46.36-.92.51-1.39.06-.18.1-.36.15-.54-.87-1.24-1.69-2.51-2.48-3.8-.13.36-.27.72-.4,1.08-.11-.05-.23-.1-.34-.16.2-.38.4-.76.61-1.14-.56-.93-1.1-1.87-1.63-2.82-.09.15-.18.29-.27.44-.07-.07-.14-.13-.22-.2.11-.17.22-.34.33-.51-.23-.43-.46-.86-.69-1.29-.07.13-.13.26-.2.38-.06-.04-.12-.09-.18-.13.09-.15.18-.3.27-.45-.23-.45-.46-.9-.68-1.36-.24.67-.48,1.3-.71,1.92-.02,0-.05-.01-.08-.02.12-.36.27-.72.34-1.09.07-.35-.08-.78.34-1.02-.76-1.55-1.46-3.14-2.1-4.74-.05.08-.09.16-.14.24-.08-.08-.16-.17-.23-.25.07-.12.15-.24.22-.36-.19-.47-.37-.94-.55-1.41-.03.07-.06.13-.09.2-.08-.24-.09-.42-.05-.57-.17-.46-.34-.93-.5-1.4-.14.13-.32.16-.58-.06.14-.16.27-.31.41-.45-1.18-3.48-2.1-7.04-2.76-10.67l-.09.19c-.06-.02-.11-.05-.17-.07.06-.17.13-.34.19-.51-.12-.69-.23-1.38-.33-2.07-.1.21-.2.42-.3.63-.08-.06-.17-.11-.25-.17.12-.2.24-.41.38-.6.01-.02.11.05.17.1-.28-1.89-.49-3.8-.62-5.72-.13.21-.25.39-.37.57-.08-.07-.15-.14-.23-.21.05-.43.18-.76.57-.88-.07-1.13-.12-2.25-.13-3.39,0,0,0,0,0,0-.07-.07-.14-.13-.2-.2.06-.09.13-.19.19-.28-.03-2.57.08-5.15.32-7.73l22.24,8.16c.08-.23.17-.45.25-.68.08.04.16.07.23.11-.12.21-.24.41-.36.62l2.4.88s-.01.09,0,.14c.29,6.45,1.8,12.63,4.33,18.29.05-.07.11-.12.17-.19.03.07.1.16.08.2-.04.07-.1.13-.16.19.22.48.45.97.68,1.44.07-.07.15-.14.22-.21.04.06.08.12.12.18-.07.09-.14.18-.21.28.25.49.5.98.76,1.46,0,0,0,0,.01,0,0,0,0,.01,0,.02,2.59,4.76,5.93,9.08,9.92,12.77.09-.29.18-.58.23-.87.15-.79.44-1.12,1.05-1.03-.29.79-.57,1.55-.84,2.3.6.54,1.21,1.08,1.84,1.6,0-.03,0-.06,0-.09.05-.16.24-.28.44-.5.03.26.09.43.04.52-.06.11-.13.2-.22.29,1.64,1.32,3.37,2.54,5.18,3.66.06-.21.11-.43.18-.64.11.04.21.07.32.11-.09.22-.19.44-.28.66,1.09.66,2.21,1.29,3.36,1.87.08-.11.21-.23.41-.42-.08.19-.15.36-.22.52.65.33,1.32.64,1.99.94.04-.11.17-.24.42-.59-.07.31-.12.53-.16.71.74.33,1.48.63,2.24.93.15-.31.23-.48.3-.64,0,.12.04.24.01.35-.02.07-.1.14-.26.3.24.09.48.19.73.28,2.11.77,4.24,1.39,6.39,1.87-.03-.04-.05-.07-.05-.08.14-.21.29-.39.44-.59.06.07.12.14.18.21-.11.17-.22.34-.33.51.76.17,1.52.32,2.28.45.11-.22.22-.44.32-.66.06.04.12.08.18.11-.1.19-.21.39-.31.58.81.13,1.63.24,2.44.34.11-.14.21-.28.32-.42.06.07.12.14.18.2-.06.08-.12.17-.17.25,3.97.43,7.95.39,11.86-.13-.01-.04-.03-.08-.04-.13.11-.1.22-.19.32-.29.02.08.08.2.06.24-.03.06-.07.1-.12.15,11.2-1.52,21.8-6.84,29.85-15.51.04-.05.08-.1.12-.15l14.42,5.29c.13-.53.47-.77.65-1.12.09.07.18.14.27.21-.17.32-.34.64-.56,1.04l6.72,2.47s.01-.06.02-.09c.08-.48.16-.91.79-1.01-.08.45-.2.87-.33,1.28l2.8,1.03c-2.38,3.4-5.01,6.57-7.87,9.49.07.73-.25.93-.67,1.06.12-.23.24-.47.4-.79-2.32,2.35-4.79,4.53-7.38,6.53,0,0,0,0,0,0-.09.18-.17.37-.26.55-.08-.06-.16-.12-.24-.18-.47.35-.94.7-1.41,1.05-.38,1.03-.74,2.02-1.15,3.13-.44-1.08.51-1.57.58-2.28.02-.16.03-.32.05-.47-7.49,5.33-15.9,9.25-24.79,11.56.03,0,.07.02.1.03-.09.29-.18.59-.28.89-.09-.02-.17-.04-.26-.06.09-.27.17-.53.26-.8-.83.21-1.67.41-2.51.6-.4,1.19-.8,2.34-1.24,3.46.35-.07.69-.14,1.04-.21.14-.26.27-.52.41-.78.05.04.11.08.16.12-.12.21-.23.41-.35.62,2.42-.51,4.8-1.14,7.16-1.87.07-.19.26-.44.62-.9-.07.3-.12.54-.17.76,2.55-.82,5.06-1.76,7.52-2.83.08-.23.15-.46.2-.69.12-.62-.19-1.31.69-1.82.02.54.04,1.03.06,1.58,1.3-.29.34-2.44,1.7-2.55-.17.69-.35,1.43-.56,2.31.37-.18.63-.32,1.15-.57-.06.11-.12.22-.18.33,1.63-.8,3.24-1.65,4.82-2.56-.11.04-.22.08-.34.11,0-.1-.03-.27,0-.3.1-.09.22-.13.33-.19,0,.1,0,.21,0,.37.44-.25.88-.51,1.31-.78.05-.14.11-.27.19-.38.08-.11.23-.15.56-.36-.09.17-.16.3-.22.42.28-.17.56-.35.85-.53.01-.32.12-.6.63-.7,0,.11,0,.21-.01.31,13.78-8.88,24.88-22.13,30.95-38.66,3.96-10.8,5.38-21.92,4.56-32.7-.1.09-.21.17-.35.29-.07-.53.05-.8.29-1.01-.14-1.65-.33-3.29-.57-4.92-.08.12-.17.25-.25.39-.09-.59-.04-.99.11-1.29-.07-.44-.15-.88-.22-1.32-.15.25-.37.46-.69.64-.1-.72.16-1.13.52-1.53-.06-.32-.13-.64-.19-.96-.21.12-.42.23-.65.36-.19-.52.16-.9.45-1.3-.48-2.22-1.06-4.41-1.73-6.57-.06.01-.12.02-.2.03.04-.07.09-.14.14-.21-.11-.36-.22-.72-.34-1.08-.33.89-.66,1.78-1,2.7-.67-.39-.61-.82-.21-1.3.35-.42.77-.78.57-1.33-.55-.41-1.09,1.31-1.55.17.43-.7,1.09-1.3,1.02-2.37,0-.13.1-.31.25-.49-.22-.59-.44-1.18-.68-1.77-.04-.01-.08-.02-.12-.04.02-.03.05-.06.07-.09-.15-.39-.31-.78-.47-1.16-.12.11-.32.13-.87.21.16-.38.34-.74.5-1.09-.39-.91-.8-1.8-1.22-2.69ZM152.49,58.88c-.29-.89,0-1.23.77-1.32-.32.55-.55.94-.77,1.32ZM153.37,60.45q-.49-.47.56-1.52c-.18.5-.37,1-.56,1.52ZM152.58,96.95c-.1-.05-.2-.09-.29-.14.15-.27.3-.54.45-.81.06.04.12.08.19.11-.11.28-.23.56-.34.84ZM152.29,101.24c-.08-.04-.16-.09-.24-.13.14-.28.28-.56.43-.84.06.04.13.07.19.11-.13.29-.25.57-.38.86ZM156.89,102.66c-.06-.09-.18-.21-.16-.25.06-.14.18-.25.28-.37.05.09.13.18.12.22-.06.14-.15.27-.23.4ZM111.27,80.95c-.18.32-.35.64-.59,1.06q-.05-.75.59-1.06ZM106.23,79.6c.02.15.07.28.04.33-.07.11-.18.19-.28.28-.01-.09-.06-.2-.03-.26.06-.12.17-.22.28-.35ZM103.63,78.87c.06-.11.2-.16.37-.28-.02.23,0,.43-.05.5-.1.12-.26.15-.39.22.02-.15.01-.32.08-.44ZM98.44,77.64c.07-.13.21-.2.32-.3.05.06.1.12.15.18-.13.22-.27.44-.4.66-.06-.02-.12-.04-.18-.06.03-.16.04-.35.11-.48ZM96.58,76.36c.05.1.1.21.15.31-.19.2-.37.4-.55.6-.05-.07-.09-.14-.14-.21.18-.23.36-.47.54-.7ZM94.08,75.43s.09.05.14.08c-.1.27-.2.53-.29.8-.08-.04-.17-.08-.25-.12.13-.25.27-.5.4-.75ZM89.45,73.79c.06.06.13.12.19.17-.19.29-.38.59-.57.88-.06-.05-.11-.1-.17-.15.18-.3.37-.6.55-.9ZM88.52,72.44c.06-.01.11.19.2.39-.2.15-.38.35-.48.32-.1-.03-.12-.29-.17-.45.15-.09.3-.22.44-.26ZM86.23,71.6c.14,0,.25.19.47.39-.54.29-.69.37-.83.45-.02-.18-.1-.39-.05-.53.07-.15.28-.32.4-.31ZM66.69,65.35c.05.03.1.06.15.09-.11.31-.23.62-.34.93-.05-.02-.11-.04-.16-.06.12-.32.23-.63.35-.95ZM54.37,61.44c.07.03.14.05.21.08-.11.29-.22.59-.32.88-.07-.03-.14-.05-.21-.08.11-.29.22-.59.32-.88ZM68.69,49.49c-.17.32-.34.65-.56,1.08q-.11-.76.56-1.08ZM66.7,50.55c.1.02.16.18.24.3-.25.21-.35.3-.45.39-.04-.15-.11-.3-.09-.46.01-.08.22-.24.3-.23ZM63.32,51.79c.05.06.1.12.15.18-.16.22-.31.44-.47.66-.06-.07-.12-.14-.19-.21.17-.21.34-.42.5-.64ZM61.55,52.91s.08,0,.11,0c-.06.25-.11.5-.17.75-.07,0-.14-.01-.21-.02.09-.24.18-.49.27-.73ZM60.24,53.73c-.3.55-.49.91-.69,1.27-.26-.77,0-1.08.69-1.27ZM51.88,60.91s.14-.02.21-.02c0,.09,0,.18-.01.27-.09,0-.18.01-.27.02.02-.09.03-.22.08-.27ZM80.92,44.33c.08.06.16.12.24.18-.19.28-.38.56-.57.84-.05-.04-.1-.09-.15-.13.16-.3.32-.6.47-.89ZM78.86,43.01c.02,1-.34,1.34-.72,1.67-.09-.09-.17-.17-.26-.26.27-.39.55-.79.98-1.41ZM77.07,44.2q-.25,1.41-1.31,1.46c.57-.63.91-1.02,1.31-1.46ZM74.37,43.9c-.19.53-.34.93-.56,1.52q-.14-.84.56-1.52ZM70.71,46.12c0,.16.04.3.01.44,0,.05-.14.1-.21.16-.03-.14-.06-.27-.07-.41,0-.03.14-.1.26-.18ZM69.48,46.42q.19.72-.52,1.32c-.19-.61.03-1.01.52-1.32ZM64.16,49.52s.07.12.1.19c-.11.09-.22.19-.33.26-.02.01-.07-.13-.12-.24.12-.08.23-.17.35-.21ZM62.52,50.44c.05.06.09.11.14.17-.12.19-.24.38-.38.55-.01.01-.14-.14-.22-.21.15-.17.31-.34.46-.51ZM60.87,51.01c.07.07.14.13.21.2-.21.36-.41.73-.72,1.26-.16-.82.17-1.15.51-1.46ZM60.27,49.51c-.17.38-.34.75-.59,1.32-.34-.85.14-1.12.59-1.32ZM59.37,51.34c.14.98-.16,1.42-.64,1.76-.1-.08-.2-.16-.3-.24.27-.44.54-.87.94-1.51ZM57.3,53.98c-.07-.04-.15-.08-.22-.13.11-.24.21-.49.33-.72.01-.02.14.04.22.06-.11.26-.22.53-.32.79ZM58.13,50.79c.05.11.13.2.11.24-.06.14-.15.25-.23.38-.05-.09-.16-.2-.14-.28.04-.12.16-.23.26-.35ZM56.14,53.99c-.45.57-.7.88-.95,1.2-.1-.19-.19-.27-.17-.34.12-.55.35-.92,1.12-.86ZM53.49,55.58c.08-.1.2-.13.31-.2,0,.11,0,.21,0,.38-.1.04-.21.08-.32.12,0-.11-.02-.26.02-.31ZM47.35,59.15c0,.1.01.2.03.5-.07.01-.2.06-.31.04-.03,0-.05-.22-.01-.27.08-.11.19-.18.29-.27ZM44.88,58.02c.07.02.13.03.2.05-.08.28-.15.56-.23.84-.1-.03-.2-.05-.3-.08.11-.27.22-.54.33-.81ZM42.72,57.23c-.18.3-.36.59-.67,1.11-.06-.77.04-1.13.67-1.11ZM41.55,55.89c.02.08.04.17.05.25-.07.03-.14.07-.22.09,0,0-.03-.11-.02-.14.05-.08.12-.13.18-.2ZM37.6,55.29c.08.03.15.06.23.1-.13.36-.26.72-.4,1.08-.1-.03-.2-.07-.29-.1.15-.36.31-.72.46-1.08ZM35.15,54.71c.07.06.15.11.22.16-.16.32-.32.64-.48.97-.1-.08-.2-.15-.3-.23.19-.3.38-.6.57-.9ZM33.31,53.87c-.31.52-.52.87-.74,1.23-.11-.15-.2-.2-.21-.28-.02-.7.28-.91.94-.95ZM29.67,51.52c.05.03.11.06.16.09-.09.27-.14.56-.28.79-.08.13-.29.14-.43.2-.04-.11-.07-.21-.11-.32.22-.26.44-.51.67-.77ZM27.33,50.77c.07.02.14.05.21.07-.13.37-.27.73-.4,1.1-.09-.03-.17-.06-.26-.09.15-.36.3-.72.45-1.08ZM84.93,14.49c.07.07.13.14.2.2-.26.42-.52.85-.78,1.27-.1-.11-.2-.22-.3-.33.3-.38.59-.76.89-1.14ZM80.61,14.87c.06.06.13.12.19.18-.17.28-.34.57-.51.85-.09-.09-.18-.18-.27-.28.2-.25.39-.51.59-.76ZM78.59,15.84c.09-.15.28-.22.43-.32.04.06.08.13.12.2-.18.29-.36.58-.54.87-.06-.03-.13-.05-.19-.08.06-.22.08-.48.18-.66ZM77.44,16.05c.22.95-.34,1.19-.59,1.64-.09-.07-.18-.13-.27-.2.26-.44.52-.87.85-1.44ZM70.08,17.1c.11-.34.21-.68.35-1.12q.23.53-.35,1.12ZM65.08,17.49c-.08.35-.16.7-.24,1.04-.05,0-.11,0-.16,0,.06-.35.12-.7.17-1.05.08,0,.15,0,.23.01ZM64.11,19.93c0,.13.03.27,0,.4-.01.06-.13.12-.21.17-.02-.13-.04-.26-.06-.4.12-.07.19-.12.27-.17ZM60.02,20.28c.02.08.07.2.05.24-.07.12-.18.21-.27.31-.04-.13-.1-.26-.08-.28.09-.11.2-.19.3-.28ZM51.67,24.56c.03.07.06.15.1.22-.18.17-.36.34-.53.51-.03-.1-.05-.2-.08-.29.17-.14.34-.29.52-.43ZM47.81,27.32c0-.14-.02-.28,0-.41,0-.03.15-.06.23-.09,0,.11-.02.21-.02.32-.07.06-.14.12-.21.18ZM49.16,23.69c.06.06.12.12.18.18-.24.38-.48.76-.73,1.13-.07-.07-.13-.13-.2-.2.25-.37.5-.74.74-1.12ZM47.38,25.05c0,.09,0,.19-.01.32-.09.08-.19.18-.29.27,0-.12-.06-.28,0-.36.06-.11.2-.16.31-.23ZM44.72,28.34s.09.05.14.07c-.11.31-.23.61-.34.92-.08-.07-.17-.13-.25-.2.15-.27.3-.53.45-.8ZM36.49,33.01c.07.06.14.13.21.19-.14.27-.28.53-.42.8-.07-.05-.15-.1-.22-.15.14-.28.29-.56.43-.84ZM30.39,38.6c.07.1.14.19.22.29-.18.25-.37.51-.55.76-.08-.1-.22-.26-.21-.27.17-.27.36-.52.55-.77ZM28.7,39.47c.07.08.13.17.2.25-.16.24-.31.47-.47.71-.07-.09-.21-.24-.2-.25.15-.24.31-.47.48-.7ZM28.35,41.59c-.39.59-.64.97-.89,1.36-.17-.84.07-1.27.89-1.36ZM24.75,46.42s-.14-.16-.13-.18c.13-.2.26-.39.4-.59.06.08.13.16.19.24-.15.18-.3.35-.46.52ZM26.45,42.89c-.34.5-.54.79-.89,1.3-.04-.92.14-1.23.89-1.3ZM23.35,46.27c.12.05.23.11.35.16-.14.33-.28.67-.42,1-.08-.02-.16-.05-.24-.07.11-.36.21-.73.31-1.09ZM22.44,49.85c-.07-.06-.14-.12-.21-.19.15-.26.3-.52.46-.79.05.03.1.07.16.1-.13.29-.27.58-.4.87ZM24.41,43.94c.06.07.12.14.18.21-.2.28-.41.57-.62.85-.07-.08-.14-.16-.2-.25.21-.27.43-.54.64-.82ZM22.01,47.08c-.13.6-.13.77-.19.87-.07.1-.21.14-.32.2.02-.15,0-.32.05-.45.05-.14.17-.24.46-.62ZM15.43,57.42c.04.1.08.19.13.29-.11.09-.21.19-.32.28-.03-.08-.06-.16-.11-.27.1-.1.2-.2.3-.3ZM14.9,59.94c-.15.26-.3.53-.44.8-.05-.01-.1-.02-.16-.04.04-.17.04-.36.11-.5.09-.16.24-.27.36-.4.04.05.09.1.13.15ZM13.63,62.86c.08.05.14.24.12.38-.01.09-.19.18-.32.3-.05-.21-.09-.35-.12-.49.11-.07.26-.22.32-.19ZM13.07,65.34c-.17.2-.34.41-.52.6-.01.01-.16-.15-.15-.17.12-.24.26-.46.4-.69.09.09.18.17.26.26ZM11.21,68.78c.17-.16.35-.28.57-.45.04.26.06.4.08.54-.18.09-.36.21-.55.26-.04.01-.13-.33-.11-.34ZM11.3,70.43c-.21.46-.41.92-.76,1.69-.2-1.1.23-1.42.76-1.69ZM9.7,74.81q-.2-1.05.83-1.47c-.25.45-.51.89-.83,1.47ZM19.34,50.93c.05.05.1.1.15.16-.16.24-.33.49-.49.73-.05-.05-.1-.1-.15-.16.16-.24.32-.49.49-.73ZM18.33,53.48c.07.06.14.11.21.17-.16.28-.32.56-.48.83-.07-.05-.13-.1-.2-.15.16-.28.31-.57.47-.85ZM17.72,55.62c.05.07.1.14.15.21-.25.29-.49.58-.74.87-.05-.07-.1-.13-.15-.2.24-.29.49-.59.73-.88ZM15.07,62.31c.04-.08.14-.12.23-.18.02.1.05.2.07.29-.1.06-.21.12-.31.18,0-.1-.02-.22.01-.29ZM13.68,67.09c.06.05.12.1.18.15-.17.35-.34.7-.58,1.19-.08-.28-.18-.44-.15-.51.16-.29.36-.56.55-.84ZM11.83,72.58c.05.05.1.09.15.14-.15.23-.29.47-.43.7-.05-.05-.11-.1-.16-.15.15-.23.29-.47.44-.7ZM8.76,81.47c-.08.01-.18.07-.22.02-.04-.04-.01-.18-.01-.27.07-.05.14-.09.21-.14,0,.13.01.25.02.38ZM7.6,84.43c-.05-.12-.1-.23-.15-.35.11-.12.18-.19.26-.26.03.12.09.24.08.38,0,.06-.12.15-.19.23ZM62.01,164.68c.1-.09.21-.14.32-.21,0,.1-.01.19-.03.35-.1.04-.21.09-.31.13,0-.09-.02-.24.02-.27ZM60.65,165.39c.06.06.12.12.18.18-.16.32-.31.64-.47.96-.07-.05-.15-.09-.22-.14.17-.33.34-.66.5-.99ZM59.84,163.83c-.24.66-.39,1.06-.63,1.7-.27-.85.01-1.19.63-1.7ZM58.33,164.55c-.19.34-.37.69-.68,1.26-.16-.92.29-1.07.68-1.26ZM57.42,162.81s.13.16.13.17c-.11.16-.23.31-.35.47-.09-.13-.13-.19-.18-.25.13-.13.26-.27.4-.38ZM55.77,163.5c.06.06.11.11.17.17-.21.32-.42.63-.63.95-.07-.07-.14-.14-.2-.2.22-.31.44-.61.66-.92ZM55,161.77c-.05.79-.18,1.38-.77,1.25-.06-.13-.11-.27-.17-.4.31-.28.63-.57.94-.85ZM53.39,162.46c.05.1.12.17.12.24-.03.53-.25.81-.93.87.39-.53.6-.82.81-1.11ZM52.62,160.98c-.05.67-.22,1.16-.86,1.21.03-.76.48-.96.86-1.21ZM49.45,158.9c-.18.3-.36.61-.66,1.11-.14-.88.15-1.09.66-1.11ZM46.67,157.98c.06.04.11.07.17.11-.11.26-.23.53-.35.79-.08-.06-.16-.12-.24-.17.14-.24.28-.49.42-.73ZM44.49,156.14q.08,1.12-.48,1.84c-.09-.04-.18-.07-.27-.11.22-.5.43-1,.75-1.73ZM41.3,154.32c.11.67-.05,1.08-.8,1.2.37-.55.58-.88.8-1.2ZM38.93,153.55c-.04.58,0,1.33-.87,1.32.36-.54.62-.93.87-1.32ZM31.8,146.87c-.26.52-.51,1.04-.8,1.62-.28-.85.15-1.31.8-1.62ZM31.08,145.18c-.22.38-.43.76-.78,1.37-.14-1,.24-1.25.78-1.37ZM28.32,144.9c-.06.17-.1.32-.17.44-.03.05-.14.03-.22.04.04-.14.06-.3.12-.43.02-.05.14-.03.27-.05ZM27.1,140.56c-.21.78-.35,1.3-.49,1.82q-.31-.75.49-1.82ZM22.31,134.74s.1.08.15.12c-.14.25-.27.49-.41.74-.05-.04-.1-.08-.15-.12.14-.24.28-.49.42-.73ZM21.27,133.64c0,.21,0,.42-.02.64,0,.04-.14.09-.41.27.21-.43.32-.67.44-.91ZM19.9,130.31c-.05.21-.11.41-.16.62-.07-.01-.13-.02-.2-.03.05-.21.11-.41.16-.62.07.01.13.02.2.03ZM18.11,130.96c.08.08.16.16.24.24-.17.21-.33.43-.51.62-.01.01-.16-.14-.15-.14.13-.24.28-.48.42-.72ZM17.54,128.96c.06.08.11.16.16.24-.24.28-.48.56-.71.85-.05-.08-.11-.16-.16-.24.24-.28.48-.56.71-.85ZM15.88,125.96c.03.16.1.32.08.49,0,.07-.22.23-.31.21-.07-.01-.09-.22-.13-.37.15-.13.26-.23.37-.33ZM13.29,121.09c.1-.12.28-.12.43-.17.03.07.05.14.08.21-.19.23-.38.47-.57.7-.06-.04-.12-.09-.18-.13.08-.21.12-.46.24-.61ZM13.08,118.88c.05.05.1.11.16.16-.16.27-.33.55-.49.82-.07-.08-.15-.16-.22-.25.18-.25.37-.49.55-.74ZM9.07,111.07c-.01-.12-.05-.24-.03-.36.01-.06.14-.12.21-.17,0,.09,0,.18,0,.27-.06.09-.12.17-.18.26ZM11.44,116.08c-.04-.12-.13-.24-.1-.35.03-.11.17-.2.32-.36.03.2.1.34.06.44-.05.11-.19.18-.29.27ZM12.52,112.84c.03.12.06.24.09.36-.19.11-.39.22-.58.33-.02-.08-.04-.15-.06-.23.19-.15.37-.31.56-.46ZM10.08,112.12c.04.17.07.35.12.58-.19.1-.3.16-.42.22-.02-.19-.06-.38-.03-.57.02-.08.21-.15.32-.23ZM10.38,107.25c.06.04.12.09.18.13-.17.33-.33.66-.5.99-.07-.05-.15-.1-.22-.16.18-.32.36-.64.54-.96ZM9.48,105.9c.1.12.15.18.19.24-.13.13-.26.27-.39.38-.02.01-.13-.15-.12-.17.1-.16.21-.3.32-.46ZM8.95,104.33c-.21.33-.42.65-.72,1.13-.19-.88.25-1.04.72-1.13ZM7.81,98.57c.09-.16.27-.24.42-.36.04.05.08.1.11.15-.17.32-.34.63-.52.95-.06-.02-.13-.04-.19-.06.05-.23.07-.49.18-.68ZM101.56,167.02c-.32-.73-.16-1.12.59-1.24-.24.51-.41.87-.59,1.24ZM109.02,164.8c-.07-.09-.13-.17-.2-.26.27-.37.54-.73.89-1.21.03.83-.24,1.22-.69,1.47ZM110.66,163.95c-.06-.03-.12-.07-.18-.1.09-.2.18-.41.28-.6,0-.02.13.05.19.07-.1.21-.19.42-.29.63ZM114.61,163.72c-.32-.98.32-1.02.56-1.47.07.06.13.12.2.18-.25.43-.5.87-.75,1.3ZM124.59,158.03c-.1-.06-.29-.17-.28-.19.14-.31.29-.61.44-.91.09.06.18.12.27.17-.14.31-.28.61-.43.92ZM143.07,142.69c.01-.11,0-.24.05-.31.05-.07.16-.07.24-.1-.01.1,0,.23-.05.29-.05.07-.16.08-.24.11ZM146.06,130.07c-.05.24-.1.48-.15.73-.06,0-.13,0-.19,0,.05-.24.09-.48.14-.72.07,0,.14,0,.2,0ZM10.67,79.76c0,.1-.01.19-.02.34-.08.08-.17.19-.27.29-.01-.12-.07-.28-.02-.35.07-.12.21-.19.32-.27ZM9.59,82.32c.23.67.12,1.12-.36,1.39-.1-.07-.2-.14-.3-.21.22-.39.44-.79.66-1.18ZM8.92,84.53c.01.88-.31,1.28-.65,1.67-.08-.05-.16-.11-.24-.16.26-.43.51-.86.89-1.51ZM7.36,88.83s-.17-.15-.16-.17c.2-.38.4-.75.61-1.12.11.11.22.23.33.34-.26.32-.51.64-.78.95ZM8.47,93.68c.06.07.12.14.18.21-.19.24-.37.48-.55.72-.06-.06-.11-.13-.17-.2.18-.25.36-.49.54-.74ZM10,86.63c-.27.45-.42.69-.62,1.03q0-.62.62-1.03ZM11.53,84.56c-.06-.94.02-1.36.84-1.38-.3.49-.49.81-.84,1.38ZM19.78,87.91c-.05-.09-.11-.18-.16-.27.08-.06.16-.16.23-.17.05,0,.08.12.12.18-.06.08-.13.17-.19.25ZM29.21,91.44c-.06-.1-.19-.26-.18-.29.14-.23.31-.43.46-.64.07.09.14.18.2.27-.16.22-.33.44-.49.66ZM39.56,108.95c-.08.06-.19.05-.28.06.04-.1.07-.23.13-.3.05-.05.14-.04.21-.06-.02.1-.02.26-.06.29ZM41.33,114.54c-.04-.08-.13-.19-.12-.22.15-.26.31-.5.47-.74.07.1.14.2.22.29-.19.22-.38.45-.57.67ZM42.86,117.81c-.06-.12-.12-.23-.19-.34.21-.2.41-.4.62-.6.04.06.08.12.13.18-.19.25-.37.5-.56.76ZM47.19,123.73c.29-.3.57-.6.86-.9-.08.64-.15,1.27-.86.9ZM48.31,125.54c-.04-.07-.08-.13-.13-.2.17-.19.34-.38.51-.57.04.06.08.12.12.18-.17.19-.33.39-.5.58ZM49.19,126.81c0-.09-.01-.18-.02-.31.1-.06.21-.13.32-.2,0,.12.06.3.02.35-.08.09-.21.11-.32.16ZM54.37,128.62c-.03.05-.13.04-.2.05.03-.1.05-.22.1-.3.04-.06.13-.05.2-.08-.04.12-.06.24-.11.32ZM55.19,132.66c.23-.34.36-.53.49-.71-.03.18-.05.36-.1.53-.01.05-.13.07-.39.19ZM60.43,133.92c-.07-.05-.14-.1-.2-.15.15-.27.3-.55.44-.82.07.07.14.15.21.23-.15.25-.3.5-.45.75ZM75.72,140.78c-.28-.58-.19-1.04.51-1.4-.21.58-.36.99-.51,1.4ZM79.96,140.72q-.4-.74.63-1.38c-.2.44-.4.89-.63,1.38ZM116.22,128.46s-.07-.07-.11-.11c.15-.23.3-.46.46-.7.04.04.08.08.11.12-.15.23-.31.46-.46.69ZM101.55,136.25c-.12.24-.24.49-.37.72-.01.02-.2-.07-.2-.08.05-.17.12-.34.18-.5-2.34.88-4.74,1.56-7.19,2.05,0,0,0,.01,0,.02-.02.08-.12.15-.18.23-.03-.06-.05-.12-.08-.19-5.22,1.02-10.62,1.13-15.98.31-.11.21-.23.43-.36.68-.11-.33-.08-.56,0-.74-2.94-.47-5.86-1.23-8.73-2.28-1.05-.38-2.07-.8-3.08-1.26-.13.17-.27.34-.4.51-.06-.08-.12-.16-.18-.24.11-.13.21-.26.32-.39-2.29-1.04-4.46-2.26-6.52-3.63-.16.73-.48,1.5-.98,2.32-.26-.97.38-1.69.79-2.45-6.21-4.18-11.28-9.75-14.84-16.22,0,0-.01.02-.02.03-.06-.05-.11-.1-.17-.15.02-.03.04-.07.07-.1-3.14-5.79-5.08-12.28-5.55-19.12l.71.26c.7,9.26,4.15,17.87,9.64,24.9-.04-.34.15-.44.84-.81-.19.36-.38.73-.59,1.13,1.13,1.42,2.33,2.77,3.62,4.05.14-.25.29-.51.43-.76.06.02.12.04.18.06-.05.2-.07.43-.17.61-.06.11-.17.19-.27.27,1.95,1.91,4.08,3.66,6.37,5.21.02-.1.04-.19.04-.29,0-.11,0-.21-.01-.33.02.11.02.22.01.33,0,.1,0,.21,0,.31,3.07,2.08,6.41,3.81,9.99,5.12,3.01,1.1,6.08,1.87,9.17,2.33,0,0,.02-.01.03-.02,0,0,0,.02-.01.03.31.05.61.09.92.13.12-.19.25-.38.38-.58.05.04.1.08.16.12-.08.16-.16.33-.24.49,13.97,1.69,28.14-3.1,38.29-13.38l.71.26c-4.82,4.94-10.54,8.66-16.72,11.04ZM116.36,124.51c-4.12,4.08-8.91,7.24-14.06,9.42,0,0,0,.01,0,.02-.01.06-.14.12-.21.17,0-.03-.01-.06-.02-.09-6.65,2.77-13.9,3.92-21.14,3.29-.01.1-.02.21-.04.31-.1-.01-.2-.03-.3-.04.03-.1.06-.19.09-.29-2.85-.26-5.7-.8-8.51-1.62,0,0,0,.02,0,.02-.08.09-.21.11-.32.15,0-.08,0-.17,0-.28-.86-.26-1.71-.54-2.56-.85-16.41-6.02-27.76-20.93-29.28-38.25l26.81,9.84c.06-.09.15-.18.22-.27.06.09.11.19.18.31-.03.03-.05.05-.07.08l49.2,18.06ZM74.5,109c.13-.21.26-.42.39-.63.05.04.09.08.14.12-.12.22-.25.43-.37.65-.05-.04-.1-.09-.15-.13ZM85.55,111c.15-.3.29-.6.44-.89.07.05.14.1.21.15-.16.28-.32.57-.47.85-.06-.04-.12-.07-.18-.11ZM108.75,121.36c.06-.13.17-.22.28-.35.03.15.08.28.05.32-.08.12-.19.2-.29.29-.02-.09-.08-.2-.05-.26ZM116.3,123.54c.05-.07.14-.09.22-.13,0,.08,0,.17,0,.3-.1.03-.2.06-.3.09.02-.09.03-.21.07-.27ZM76.89,137.4c-.1.05-.21.1-.32.15,0-.1-.03-.24,0-.29.08-.1.2-.14.3-.21,0,.1,0,.19.01.35ZM56.23,127.33c-.13.21-.25.43-.4.61-.02.03-.17-.12-.26-.19.14-.21.28-.41.42-.62.08.07.16.13.24.2ZM47.93,119.24c-.1-.02-.2-.04-.31-.06.08-.21.15-.43.24-.64.01-.03.14,0,.22,0-.05.23-.1.46-.15.69ZM40.51,101.71c-.05.14-.18.25-.28.37-.06-.1-.12-.2-.21-.35.15-.14.25-.24.36-.34.05.11.16.23.13.32ZM144.45,142.22c-.06-.06-.12-.12-.17-.18.19-.27.38-.53.56-.8.05.06.11.12.16.17-.19.27-.37.54-.55.81ZM145.53,139.36c-.05-.07-.1-.13-.15-.2.17-.22.35-.44.52-.66.05.06.1.13.15.19-.17.22-.34.44-.51.66ZM148.03,132.8l-3.19-1.17s0,.01,0,.02c-.32,0-.49.05-.63,0-.04-.02-.06-.15-.06-.26l-4.24-1.56c-.03.12-.05.23-.08.34-.18-.18-.25-.33-.26-.46l-2.28-.84c-.08.12-.16.25-.24.37-.07-.1-.13-.19-.2-.29.06-.06.12-.12.17-.19l-2.15-.79c-.11.18-.27.36-.48.52.08-.21.15-.42.23-.62l-22.27-8.17c-.05.06-.11.12-.15.19-.06-.09-.13-.17-.21-.29,0,0,.01-.01.02-.02l-11.51-4.22c-.05.2-.1.39-.15.59-.1-.02-.2-.04-.3-.06.07-.2.15-.41.23-.61l-24.52-9s-.14.06-.2.09c0-.06,0-.11-.01-.17l-7.25-2.66c-.13.34-.24.66-.39,1.07-.07-.67-.08-.79.24-1.13l-34.46-12.65c-.13.18-.25.36-.38.53-.06-.07-.12-.13-.18-.2.1-.14.2-.28.3-.43l-4.56-1.68c-.12.18-.24.36-.35.54-.05-.04-.1-.09-.15-.13.08-.17.15-.35.24-.51l-18.09-6.64c.05-.35.09-.69.15-1.04l.74.27c.03-.06.05-.12.08-.18.06.04.12.08.18.12-.02.04-.05.09-.07.13l2.01.74c.06-.11.13-.22.19-.33.07.05.15.1.22.14-.05.09-.09.19-.14.28l16.2,5.95c.14-.2.27-.39.41-.59.06.06.12.12.18.18-.11.17-.22.33-.33.5l22.37,8.21c.14-.17.28-.34.41-.51.05.06.1.12.15.18-.1.14-.21.28-.31.42l16.66,6.12s.01-.09.03-.12c.05-.12.18-.21.39-.45-.09.28-.15.48-.21.65l20.23,7.42s0-.06,0-.09c0-.02.15-.04.37-.09-.07.1-.12.18-.17.25l16.33,5.99c.13-.25.25-.51.38-.76.07.06.15.13.23.19-.12.22-.25.44-.37.66l28.15,10.33c.13-.34.25-.67.37-1-.11.32-.11.7-.16,1.08l4.9,1.8s.07-.1.11-.15c-.01.06-.03.12-.04.17l3.28,1.2c-.05-.06-.11-.12-.1-.14.13-.27.28-.52.43-.78.08.08.17.16.25.24-.17.23-.34.46-.52.7l5.09,1.87c-.18.3-.37.59-.56.88ZM153.37,123.61c.1-.07.22-.08.42-.14-.09.26-.13.46-.21.53-.07.06-.21-.03-.29-.1-.02-.02.03-.26.08-.29ZM151.55,129.5c-.06-.05-.11-.09-.17-.14.14-.21.28-.41.42-.62.03.02.06.05.09.07-.12.23-.23.46-.35.69ZM157.65,119c.08.05.12.15.22.29-.17.13-.26.2-.36.28-.02-.13-.06-.25-.04-.38,0-.07.16-.21.18-.19ZM154.21,125.54c.05.1.13.2.11.23-.07.12-.17.22-.26.33-.03-.06-.11-.15-.09-.19.06-.13.15-.24.24-.36ZM155.02,120.43c-.36.56-.57.87-.92,1.41-.05-.95.22-1.19.92-1.41ZM162.44,94.63c.08.04.16.09.24.13-.13.31-.27.63-.4.94-.11-.07-.22-.14-.33-.21.16-.29.33-.57.49-.86ZM161.53,97.73c-.15.33-.29.67-.5,1.15-.2-.63-.2-1.03.5-1.15ZM160.53,99.89c.07.07.13.13.2.2-.18.29-.35.58-.53.88-.08-.07-.16-.15-.24-.22.19-.29.38-.57.58-.86ZM153.37,98.16s-.02-.16-.03-.25c.08-.06.15-.13.23-.19.01.12.02.24.04.36-.08.03-.17.1-.23.09ZM154.64,97.96q.04-.86.74-1.04c-.22.3-.43.61-.74,1.04ZM155.73,98.84s-.12-.15-.12-.16c.08-.12.18-.23.27-.35.05.09.13.2.12.21-.08.11-.18.22-.28.3ZM157.72,100.15c-.06-.06-.11-.13-.17-.19.2-.29.41-.58.61-.87.06.06.11.13.17.19-.2.29-.4.58-.61.87ZM159.77,98.93c-.1.15-.27.22-.42.32-.05-.1-.1-.2-.16-.31.21-.26.43-.52.64-.78.06.04.12.08.18.12-.08.22-.13.46-.25.64ZM160.43,96.75s-.27-.14-.26-.16c.11-.31.24-.6.37-.9.12.08.24.16.36.24-.15.28-.3.56-.47.83ZM161.09,94.5c.08-.42.15-.83.23-1.25.12.02.23.04.35.06-.13.4-.26.8-.4,1.21-.06,0-.12-.01-.18-.02ZM162.54,90.52c.02.1.04.19.06.29-.15.09-.3.18-.45.27-.02-.05-.04-.1-.06-.15.15-.14.3-.27.45-.41ZM161.78,88.85s.08.1.12.14c-.14.17-.28.34-.41.51-.03-.04-.06-.07-.09-.11.13-.18.26-.36.39-.55ZM160.3,85.86c-.08-.09-.15-.17-.23-.26.17-.21.34-.43.52-.63.01-.01.15.14.15.15-.14.25-.29.5-.44.74ZM162.05,84.42c.06.05.12.1.17.16-.12.2-.25.4-.37.6-.05-.06-.16-.16-.16-.17.11-.2.23-.39.35-.59ZM161.21,86.8c.06.05.12.09.19.14-.2.41-.4.82-.6,1.23-.09-.08-.18-.16-.26-.23.22-.38.45-.76.67-1.14ZM161.62,82.73c-.19.34-.37.67-.69,1.25-.17-.94.17-1.16.69-1.25ZM160.86,81.17c-.2.35-.4.7-.7,1.23-.16-.84-.07-1.28.7-1.23ZM160.44,78.7c-.29.79-.48,1.3-.66,1.8-.34-.72.03-1.15.66-1.8ZM159.58,77.47s.1.09.15.14c-.11.14-.22.29-.34.42,0,0-.07-.08-.07-.09.08-.16.17-.32.26-.48ZM159.53,73.52c-.05.16-.07.31-.14.43-.03.05-.15.04-.23.05.03-.14.04-.29.09-.43.01-.03.15-.03.28-.04ZM159.01,75.1c-.03.76-.3,1.22-.82,1.71-.09-.89.43-1.18.82-1.71ZM158.95,71.46s.09.03.14.04c-.08.23-.15.47-.23.7-.06-.02-.11-.03-.16-.05.08-.23.17-.46.25-.69ZM158.12,73.86c.05.11.13.23.12.25-.09.13-.2.24-.31.36-.04-.1-.14-.24-.12-.29.08-.13.2-.22.31-.33ZM156.78,66.06c.09.13.18.27.27.4-.25.26-.49.53-.75.78-.01.01-.2-.27-.19-.29.21-.31.44-.6.67-.89ZM155.29,62.29c.05.07.11.14.16.21-.2.38-.39.76-.68,1.33-.03-.33-.09-.49-.05-.58.17-.33.37-.64.56-.96Z"/>
        <path class="cls-1" d="M74.58,48c.4-.22.7-.39,1.05-.58-.31.06-.62.13-.93.2-.04.12-.07.25-.11.38Z"/>
        <path class="cls-1" d="M116.19,58.88c-.3-.28-.6-.55-.9-.82-.09.13-.18.27-.28.44-.06-.3-.05-.51.01-.67-.19-.16-.38-.33-.57-.49-.17.38-.33.76-.5,1.12.49.42.98.86,1.45,1.31.1-.48.29-.82.78-.88Z"/>
        <path class="cls-1" d="M87.94,46.59c-.79-.05-1.59-.08-2.38-.09-.1.19-.2.39-.33.64-.04-.26-.05-.47-.03-.65-1.19,0-2.37.02-3.55.1-.16.15-.31.31-.47.46-.05-.07-.09-.15-.14-.22.05-.07.11-.13.16-.2-1.28.1-2.55.26-3.82.46-.04.11-.09.21-.13.32-.11-.06-.23-.12-.34-.18.01-.02.02-.05.04-.07-.33.06-.65.12-.97.18-.18.57-.31.99-.4,1.27,2.25-.47,4.53-.77,6.82-.89,0,0,0-.01.01-.02,0,0,0,0,0,.01.36-.02.72-.04,1.08-.05.07-.17.14-.35.22-.52.06.02.13.03.19.05-.04.16-.08.31-.12.47.87-.02,1.73-.02,2.6.01.01-.01.02-.03.04-.04,0,.01.02.03.02.04.31.01.62.03.93.05.02-.07.03-.14.05-.2.1-.33.3-.64.51-.95Z"/>
        <path class="cls-1" d="M94.4,47.49c-1.12-.24-2.24-.43-3.36-.58-.14.38-.27.75-.41,1.13,0,0,0,0,0,0,.76.1,1.52.22,2.28.35.04-.05.09-.11.13-.16.01.07.02.13.02.19.32.06.64.12.97.19-.13-.54.11-.84.37-1.12Z"/>
        <path class="cls-1" d="M136.22,34.02c-.07-.05-.14-.1-.21-.15.03-.05.06-.11.09-.16-.58-.51-1.18-1.01-1.78-1.51-.34.74-.43.78-.96,1.01.06-.59.3-.9.72-1.21-.3-.24-.6-.48-.9-.72-.02.07-.04.14-.06.21-.07-.02-.13-.03-.2-.05.03-.1.06-.2.09-.3-.67-.53-1.35-1.05-2.04-1.56-.13.17-.23.28-.32.39.03-.16.04-.32.09-.47,0-.02.03-.03.06-.04-.3-.22-.61-.44-.92-.66-.3,1.04-.51,2.12-1.14,3.04.29.21.58.42.86.63.12-.2.23-.41.35-.61.05.03.11.07.16.1-.11.22-.21.43-.32.65,1.01.76,1.99,1.54,2.96,2.35.18-.23.37-.47.55-.7.06.11.13.22.19.33-.18.18-.36.36-.54.54.4.34.8.68,1.2,1.03.05-.05.1-.09.15-.14-.03.07-.05.14-.08.21.51.45,1.02.91,1.52,1.38.3-.44.56-.82.86-1.26-.06,1-.08,1.3-.53,1.57.4.37.79.75,1.17,1.13.03-.02.05-.03.09-.05-.02.03-.03.05-.05.08,1.92,1.89,3.73,3.88,5.43,5.95.1-.28.2-.54.3-.81.1.06.21.12.31.18-.17.29-.27.6-.37.93,1.78,2.2,3.43,4.51,4.95,6.89.03-.24.2-.41.62-.48-.14.34-.26.62-.37.88.23.37.46.73.68,1.1.12-.09.28-.14.42-.2-.09.15-.17.3-.27.47.21.34.41.69.61,1.04.03-.04.07-.09.1-.13.07-.5.12-.99.21-1.49.09-.48.23-.59.9-.8-.07.96-.68,1.57-1.11,2.29,0,0,0,0,0,0h0c0,.12.02.24.04.36.24.42.48.84.71,1.27.15-.29.23-.68.28-1.01.08-.58.22-.97.81-1.09-.26.87-.54,1.73-.83,2.58.19.35.38.71.56,1.06.19-.36.28-.74.15-1.21.67-.76.93-1.76,1.29-2.7-1.2-2.14-2.51-4.22-3.91-6.23-.12.28-.34.55-.71.84,0-.87,0-1.1.27-1.45-.5-.7-1.01-1.4-1.53-2.09-.01.05-.03.11-.04.16-.16.79-.07,1.7-1.01,2.19-.15-1,.71-1.47,1.01-2.19.02-.05.03-.11.04-.16-.86-1.13-1.75-2.23-2.66-3.31-.1.22-.21.45-.31.67-.07-.05-.14-.1-.21-.15.12-.23.25-.45.37-.68-1.26-1.47-2.57-2.9-3.94-4.28-.08.13-.15.24-.22.32.05-.13.1-.25.15-.38-.85-.85-1.72-1.69-2.61-2.51-.17.28-.38.38-.69.47.12-.27.23-.53.34-.79-.26-.24-.53-.47-.79-.71-.02.05-.05.1-.07.14ZM130.95,32.71q.09-1.11,1.04-2.06c.18.99-.22,1.53-1.04,2.06ZM131.87,34.12c-.07-.14-.1-.32-.15-.54.2-.11.32-.16.44-.22,0,.19.05.38.01.58-.01.07-.29.22-.3.19ZM150.02,50.76c.09-.08.21-.1.41-.18-.12.26-.16.45-.24.51-.07.05-.19-.03-.28-.05.04-.1.06-.23.11-.28ZM149.4,49.2s.05.09.07.14c-.14.22-.28.44-.42.67-.05-.06-.1-.11-.14-.17.16-.21.33-.43.49-.64ZM147.75,49.8c.12.6,0,1.04-.61,1.16.21-.39.41-.77.61-1.16ZM146.91,48.51s.07.05.1.08c-.09.25-.18.49-.27.74-.08-.05-.16-.11-.24-.16.14-.22.28-.44.41-.65ZM144.73,43.48c.1.01.16.18.33.39-.4.15-.58.29-.69.24-.08-.04-.06-.32-.08-.49.15-.05.31-.16.44-.14ZM139.16,37.52c-.33.54-.66,1.08-1.19,1.95-.11-1.41.49-1.72,1.19-1.95ZM138.04,35.93c.32.68-.02.97-.32,1.28-.09-.04-.17-.08-.26-.12.17-.35.35-.69.58-1.16ZM135.31,36.51c-.06-.03-.12-.06-.19-.09.15-.42.31-.84.46-1.26.07,0,.15.02.22.02-.03.17-.02.35-.09.49-.12.29-.27.56-.41.83Z"/>
        <path class="cls-1" d="M89.95,168.64c-.04-.58.25-.98.87-.99-.35,1.33-.69,2.25-1.05,2.85.38-.02.75-.05,1.13-.08-.21-.32-.06-.62.09-.96.22-.5.36-1.03.51-1.56.07-.22.09-.47.14-.69-.69.06-1.38.12-2.08.17-.38,1.07-.75,2.14-1.12,3.2.31-.02.62-.04.93-.06.41-.54.63-1.13.58-1.88Z"/>
        <path class="cls-1" d="M87.54,167.71c.08-.08.17-.16.25-.24-.28.01-.55.02-.83.03-.19.66-.42,1.32-.82,1.97-.33-.91.23-1.41.52-1.96-.39.01-.79.02-1.19.02-.09.11-.18.22-.28.33.01-.12.02-.22.02-.33-.26,0-.52,0-.78,0-.05.12-.09.24-.14.35-.18.46-.44.69-.75.17.11-.17.21-.35.3-.53-.26,0-.53,0-.79-.02-.11.32-.21.64-.31.96-.14.42-.44.98-1.01.63.17-.32.29-.65.47-.85.22-.24.36-.48.44-.75-.34,0-.68-.02-1.01-.03-.18.61-.36,1.22-.55,1.83-.13.41-.23.84-.34,1.27.3.02.59.02.89.04.16-.21.34-.42.56-.62-.08.22-.16.43-.23.63.22,0,.45.02.67.03.13-.49.35-.91.93-1.06-.06.37-.14.72-.23,1.07.66.01,1.32.01,1.99,0,.16-.12.43-.18.84-.25-.05.08-.09.16-.13.24.21,0,.42,0,.64,0,.02-.14.03-.28.03-.43,0-.2.49-.55.75-.83.08.11.15.21.23.32-.17.29-.31.6-.43.92.24,0,.49-.02.73-.03-.1-1.19.84-2.08,1.13-3.19-.24.01-.47.03-.71.04-.21.42-.27.41-.85.27ZM84.85,169.9c-.1.15-.3.19-.62.39.05-1.05.4-1.3,1.08-1.39-.19.44-.29.75-.46,1Z"/>
        <path class="cls-1" d="M76.22,168.27c-.14.52-.26,1.05-.39,1.58,0,0,0,0,0,0h0s0,0,0,0c-.06.1-.11.19-.17.29.25.03.5.06.74.08.17-.42.35-.85.51-1.28.15-.41.19-.88.22-1.31.01-.19.04-.34.08-.48-.22-.02-.44-.05-.66-.07-.13.48-.24.83-.32,1.18Z"/>
        <path class="cls-1" d="M79.68,169.12c-.5-.63-.43-1.07-.03-1.63.03-.04.06-.08.09-.12-.62-.04-1.24-.09-1.86-.15-.17.76-.3,1.5-.64,2.09-.17.3-.29.63-.4.96.61.06,1.21.12,1.82.16.14-.23.37-.37.81-.43-.06.17-.11.32-.16.48.28.02.55.04.83.05.29-.84.58-1.68.85-2.52.06-.18.01-.39.05-.57-.22-.01-.44-.02-.66-.03-.25.55-.51,1.11-.7,1.71ZM77.95,169.6c-.32-1.04.36-1.19.71-1.74.19.83-.19,1.21-.71,1.74Z"/>
        <path class="cls-1" d="M90.62,47.11c-.01-.09-.02-.17-.02-.26-.31-.04-.62-.08-.94-.11-.14.38-.28.76-.42,1.14.28.03.56.06.84.09.02-.06.04-.12.07-.18.14-.25.48-.54.46-.68Z"/>
        <path class="cls-1" d="M99.63,48.94c-.39-.13-.78-.26-1.17-.38-.14.16-.29.29-.46.42,0,0,0,.01,0,.02,0,.02-.01.03-.02.05.02.23.03.42.03.6.35.11.7.22,1.04.33-.1-.61.14-.82.58-1.04Z"/>
        <path class="cls-1" d="M114.22,57.24s.01-.06.02-.09c-.27-.22-.53-.44-.8-.66-.06.46-.38.7-.55,1.01-.07-.04-.14-.08-.21-.12.38.3.75.6,1.11.91.17-.35.34-.69.44-1.05Z"/>
        <path class="cls-1" d="M93.32,46.57c.1-.44.38-.61.79-.72-.03.36-.1.64-.24.83.32.06.65.13.97.2.02-.05.03-.09.03-.14.09-.73.03-1.48.7-2.02.15-.12.26-.33.51-.65.19,1.08-.68,1.69-.77,2.45-.02.16-.06.31-.1.45.28.07.57.13.85.2.02-.02.04-.03.06-.05,0,.02,0,.05,0,.07.76.19,1.51.41,2.27.64.1-.14.25-.26.49-.3-.01.16-.04.3-.08.43.63.2,1.27.41,1.89.64.19-.13.38-.26.58-.4.02.08.04.16.07.23-.12.09-.24.18-.36.26.76.28,1.51.59,2.24.9.14-.24.27-.47.41-.71.08.06.16.12.24.18-.11.23-.21.45-.32.68,1.08.48,2.15.99,3.18,1.54.18-.33.28-.72.42-1.08,0,0,0-.02,0-.02h.02s-.02,0,0,0c0,0,0,0,.01-.01.2-.6.21-1.34.84-1.75-1.13-.59-2.28-1.15-3.47-1.66-.03.1-.07.19-.1.28-.03-.14-.05-.25-.06-.35-.74-.32-1.49-.62-2.25-.9-.05.09-.1.17-.15.26-.06-.05-.11-.09-.17-.14.04-.07.08-.13.11-.2-.7-.26-1.4-.49-2.1-.71-.08.22-.16.43-.24.65-.07,0-.15,0-.22,0-.03-.27-.15-.6-.06-.8,0,0,0-.01,0-.02-.66-.2-1.31-.39-1.98-.56-.05.09-.1.18-.16.27-.06-.05-.12-.1-.18-.16.04-.06.07-.12.11-.17-.75-.19-1.5-.37-2.26-.53-.11.22-.22.44-.33.65-.1-.08-.21-.17-.31-.25.1-.15.21-.31.31-.46-.73-.15-1.45-.27-2.18-.39-.36,1-.72,2-1.08,3,.68.1,1.36.21,2.04.34ZM105.98,49.93c.06.02.12.05.18.07-.09.24-.17.48-.26.71-.06-.02-.12-.05-.18-.07.09-.24.17-.48.26-.71ZM105.58,47.28c.08.06.17.13.25.19-.24.47-.48.93-.85,1.65-.36-1.11.23-1.42.6-1.84ZM102.9,47.11c.05.05.11.1.16.15-.12.2-.23.41-.35.61-.05-.06-.16-.15-.15-.17.1-.2.23-.39.35-.59ZM100.92,45.56c-.08,1.19-.4,1.68-1.1,1.97-.1-1.04.55-1.25,1.1-1.97ZM98.53,45.37c-.3.62-.55,1.13-.85,1.76-.46-1.17-.32-1.44.85-1.76ZM92.94,45.39c-.42-1.16.21-1.38.76-1.65-.21.46-.43.92-.76,1.65Z"/>
        <path class="cls-1" d="M65.71,166.76c-.14.44-.28.89-.45,1.44.68.18,1.36.34,2.05.5-.02-.05-.03-.09-.02-.13.15-.51.44-.73,1.02-.51-.24.28-.44.51-.62.72.84.19,1.68.36,2.52.52.24-1.33.61-2.4.98-3-.85-.16-1.69-.33-2.54-.52-.1.19-.21.4-.33.63-.02-.32-.03-.54-.02-.71-.7-.16-1.39-.33-2.09-.51-.1.1-.21.2-.35.29-.03-.14-.04-.27-.04-.39-.36-.09-.72-.19-1.08-.29.3,1.15-.36,1.76-.57,2.45-.06.2-.13.39-.2.59.37.1.74.2,1.11.3-.21-.53-.12-.62.62-1.39ZM69.66,167.1c-.07.34-.13.67-.2,1.01-.14,0-.28,0-.42,0,.05-.32.08-.65.16-.96.01-.05.3-.04.46-.06ZM67.55,166.09c-.31.56-.51.92-.71,1.27-.12-.07-.24-.09-.24-.15-.04-.62.1-1.08.95-1.13Z"/>
        <path class="cls-1" d="M157.91,67.46c.26-.15.47-.27.64-.39-.08-.23-.16-.46-.24-.69-.13.35-.26.7-.4,1.08Z"/>
        <path class="cls-1" d="M112.34,55.65c-.14.38-.29.76-.43,1.15.23.18.46.35.69.53.18-.32.36-.64.59-1.03-.28-.22-.56-.43-.85-.65Z"/>
        <path class="cls-1" d="M75.83,169.85h0s0,0,0,0c-.56-1.28-.53-1.67.55-2.77-1.67-.19-3.34-.43-5.01-.73-.37,1.01-.73,2-1.09,2.98.29.05.57.11.86.16.08-.25.15-.5.22-.76.13-.54.6-1.04,1.03-1.73.11,1-.19,1.83-.51,2.62.65.11,1.3.21,1.95.3.11-.37.18-.75.17-1.15,0-.07.38-.26.72-.48.01.24.07.41.02.55-.14.38-.28.77-.41,1.15.38.05.75.1,1.13.15.11-.08.24-.16.39-.27ZM73.38,167.82c-.05-.04-.1-.08-.16-.12.13-.26.26-.51.39-.77.07.08.13.16.2.23-.14.22-.29.44-.44.66Z"/>
        <path class="cls-1" d="M89.21,46.7c-.34-.03-.68-.06-1.01-.09-.07.4-.17.79-.27,1.16.36.02.72.06,1.08.09.11-.3.16-.62.17-.99,0-.05.02-.11.04-.17Z"/>
        <path class="cls-1" d="M106.89,52.14c-.11.2-.22.41-.33.63-.17-.33-.18-.6-.11-.87-.64-.34-1.29-.66-1.94-.98-.18.22-.37.45-.55.67-.06-.08-.12-.16-.18-.23.15-.19.3-.38.44-.57-.32-.15-.64-.29-.96-.44-.01.03-.03.06-.04.1-.07-.07-.14-.14-.21-.2-.78-.34-1.57-.66-2.38-.96-.27-.1-.54-.19-.82-.28-.27.42-.45.7-.65,1.02.36.12.71.24,1.06.37,2.47.91,4.82,2.02,7.05,3.31.07-.11.14-.21.22-.31,0,.14-.01.29-.03.43.65.38,1.28.78,1.91,1.19.02-.33.14-.65.59-.91-.06.31-.15.7-.26,1.12.33.22.65.44.97.67.04-.09.08-.18.12-.28.08.03.15.06.23.08-.04.12-.08.24-.11.35.26.19.52.38.77.57.11-.41.2-.82.33-1.22-1.62-1.19-3.33-2.28-5.11-3.26Z"/>
        <path class="cls-1" d="M88.61,76.77c-.18.24-.36.47-.54.71-.05-.05-.1-.1-.15-.15.14-.22.27-.44.41-.67l-17.81-6.54s-.08.1-.13.15c-.05-.06-.09-.11-.14-.17.01-.02.03-.04.04-.06l-4.53-1.66c-.09.29-.18.58-.27.87-.1-.02-.19-.04-.29-.06.08-.31.15-.62.23-.93l-4.35-1.6c-.13.18-.26.35-.39.53-.05-.06-.15-.16-.14-.18.08-.15.18-.3.27-.44l-7.12-2.61c-.26.86-.32.85-.9.75.26-.28.48-.51.75-.81l-15.48-5.68c-.06.11-.11.21-.17.32-.1-.09-.21-.18-.31-.27.04-.06.09-.12.13-.17l-4.24-1.56c-.14.38-.26.75-.38,1.11l10.36,3.8c.16-.25.31-.51.47-.76.07.05.13.1.2.15-.11.25-.23.49-.34.74l45.34,16.64c.12-.37.23-.75.35-1.12l-.87-.32ZM68.05,70.05c-.05-.1-.12-.18-.14-.29,0-.05.09-.16.15-.24.06.08.13.15.18.23-.09.14-.14.22-.19.31Z"/>
        <path class="cls-1" d="M114.4,56.37c.1-.29.3-.56.8-.73-.16.36-.31.69-.45,1.02.28.24.56.48.84.72.05-.01.1-.02.16-.03-.02.04-.05.07-.07.11.49.43.98.88,1.45,1.33.17-.59.41-.85.79-.95.07.12.14.25.2.37-.21.25-.43.49-.72.83.35.34.7.69,1.04,1.05l.09-.24s.08.03.11.04c-.04.1-.07.2-.11.29.28.3.56.6.84.9.08-.12.17-.25.26-.4,0,.24-.03.44-.07.6.89.99,1.74,2.03,2.55,3.09.03-.21.23-.32.76-.61-.21.37-.36.64-.52.93,3.96,5.34,6.79,11.52,8.2,18.17,0,0,.02-.01.02-.02,0,.02-.01.03-.02.05.15.7.28,1.41.4,2.13.08-.12.17-.24.25-.37.04.03.08.06.12.09-.1.23-.2.47-.3.7,0,0,0,0,0,0,.13.87.25,1.74.34,2.62l-.73-.27c-.02-.2-.05-.39-.07-.59-.14.26-.31.58-.48.9-.08-.06-.16-.13-.23-.19.2-.32.4-.64.6-.95.02-.03.05-.05.08-.07-.21-1.67-.5-3.31-.89-4.92-.09.16-.18.33-.29.54-.28-.64-.11-.94.14-1.17-.14-.55-.29-1.09-.45-1.63-.06.16-.12.32-.18.49-.08-.02-.16-.05-.24-.07.1-.23.19-.47.3-.7,0,0,.02,0,.04,0-.54-1.8-1.18-3.56-1.93-5.27-.2.54-.39,1.08-.59,1.61.75,1.85,1.38,3.75,1.88,5.7.02-.04.03-.07.05-.11,0,.12,0,.21,0,.3.17.66.32,1.32.45,1.99.08-.07.16-.13.24-.21-.07.21-.12.41-.16.6.21,1.09.39,2.19.52,3.3l-1.53-.56s.02.02.03.03c-.13.2-.26.41-.39.61-.05-.05-.11-.1-.16-.15.12-.18.23-.37.35-.55l-2.11-.77c-.11.24-.23.5-.38.82-.08-.35-.15-.48-.12-.53.07-.13.15-.26.23-.38l-2.18-.8c-.11.23-.22.47-.33.7-.1-.07-.19-.14-.29-.21.12-.2.23-.39.35-.59l-1.89-.69c-.21.32-.44.68-.73,1.14-.14-.69.02-1.06.24-1.33l-1.87-.69c-.36.98-.79,1.94-1.21,2.89l1.87.69c.15-.3.56-.43.85-.6-.13.25-.26.51-.39.77l6.84,2.51c.04-.19.07-.41.16-.56.13-.21.32-.35.54-.59.02.27.08.45.03.55-.13.25-.3.47-.47.7l4.41,1.62s0,0,0,0c.11-.19.23-.38.35-.56.05.05.1.1.15.14-.1.17-.21.33-.31.5l2.15.79c.17-.21.35-.42.52-.64.05.06.11.12.16.18-.12.19-.24.38-.36.57l5.69,2.09c.07-.13.13-.25.21-.39.04.18.06.34.07.49l4.36,1.6c.04-.08.07-.16.11-.24.13.09.25.19.38.28-.02.04-.04.07-.06.11l4.53,1.66c.14-.36.3-.73.46-1.14-.43-.16-.8-.29-1.18-.43.2-.55.41-1.11.65-1.78l-1.02-.37c-.26.6-.38.9-.51,1.2-.06,0-.13-.01-.19-.02.02-.22-.02-.46.06-.64.07-.15.25-.25.6-.55l-1.18-.43c-.05.14-.11.29-.17.45-.12-.22-.19-.42-.22-.59l-4.49-1.65c-.05.09-.1.19-.15.28-.07-.05-.14-.11-.22-.17.04-.07.09-.14.13-.2l-.95-.35c-.12.7-.14,1.38-1.03,2.03.08-.52.07-.79.16-1.02.15-.39.31-.78.46-1.16l-3.11-1.14c-.01.09-.03.18-.06.27-.02.05-.14.06-.21.09,0-.15,0-.29.04-.44l-2.02-.74c-.12.17-.26.33-.4.48-.08-.07-.16-.14-.24-.22.08-.14.16-.27.25-.41l-.11-.04c-.04-.64-.1-1.27-.16-1.9-.16.27-.32.54-.51.88-.11-.24-.23-.41-.21-.45.2-.31.43-.59.64-.89,0,.01.02.02.03.03-.11-.93-.24-1.86-.39-2.78,0,0,0,0-.01.01-.08-.22-.1-.4-.08-.56-.23-1.24-.5-2.47-.82-3.68-.09.14-.18.29-.29.42-.01.01-.12-.09-.18-.14.12-.21.25-.41.37-.62-.16-.6-.33-1.19-.51-1.77-.19.39-.39.8-.67,1.4-.14-.97.1-1.42.47-1.81.03.02.06.04.09.06-.14-.45-.29-.9-.45-1.35-.15.36-.31.73-.5,1.18-.47-.81-.16-1.26.35-1.6-.2-.55-.41-1.1-.63-1.65-.27.83-.45.96-.91,1.28.26-.63.49-1.2.72-1.76-.6-1.46-1.28-2.89-2.02-4.29-.09.25-.18.5-.27.75-.09-.03-.18-.06-.28-.08.13-.29.26-.58.39-.88.02,0,.04.01.05.02-.23-.43-.46-.85-.7-1.27-.08.13-.17.26-.25.38-.07-.09-.15-.18-.22-.26.11-.12.22-.25.33-.37-.25-.43-.5-.85-.76-1.27-.04.09-.09.18-.13.28-.08-.05-.16-.09-.24-.13.07-.13.14-.27.21-.4-1.03-1.63-2.14-3.21-3.35-4.71-.25.47-.51.74-.88.93.21-.4.46-.79.67-1.18-.26-.32-.53-.64-.8-.96-.1.28-.22.6-.36.99-.13-.6-.05-.99.12-1.28-.26-.3-.52-.59-.79-.88-.32.93-.4,2.05-1.33,3,.08-.65.03-1.04.16-1.21.51-.65.86-1.29.81-2.16,0,0,0-.02,0-.03-.81-.87-1.66-1.72-2.53-2.53-.14.26-.29.52-.43.78-.1-.47-.01-.78.18-1-.86-.79-1.75-1.55-2.66-2.28-.14.08-.28.15-.42.23-.01-.09-.05-.24-.03-.26.06-.06.13-.11.2-.16-.62-.49-1.25-.96-1.89-1.42-.41,1.13-.75,2.1-1.11,3.06.61.45,1.21.93,1.8,1.41ZM127.55,78.68c.18-.39.33-.71.48-1.03.13.09.24.12.24.18.04.56-.07.95-.72.85ZM119.05,85.32c-.07.12-.19.21-.28.31-.04-.04-.07-.08-.11-.12.16-.24.31-.49.46-.73.04.02.08.03.11.05-.06.17-.1.34-.19.49ZM123.58,87.22c-.02-.08-.07-.2-.05-.25.08-.12.19-.21.3-.33.01.13.05.25.02.29-.07.11-.18.19-.27.28ZM128.38,89.03c-.06-.05-.11-.1-.17-.14.12-.2.24-.41.36-.6.01-.02.1.04.16.05-.12.23-.24.46-.35.69ZM145.72,93.39c-.2.5-.41,1.01-.61,1.51-.59-.93.13-1.14.61-1.51ZM142.68,93.44c.02.08.07.16.05.23-.03.08-.11.15-.17.23-.03-.1-.07-.2-.08-.3,0-.03.13-.1.2-.15ZM132.13,89.31q.07-.83.85-1.43c-.35.58-.56.94-.85,1.43ZM133.71,85.05c.07.05.15.11.22.16-.2.38-.4.75-.59,1.13-.08-.06-.16-.12-.24-.18.21-.37.41-.74.62-1.11ZM132.12,86.26c.06.1.12.21.18.31-.18.19-.37.38-.55.57-.04-.08-.12-.2-.11-.23.15-.23.31-.43.47-.65ZM131.1,78.21c-.35.6-.57.99-.8,1.37-.24-.86.1-1.13.8-1.37ZM130.07,76.58c.06.05.11.09.17.14-.17.29-.34.57-.51.86-.05-.04-.09-.08-.14-.11.16-.29.32-.59.48-.88ZM128.2,74.3c-.06-.04-.11-.08-.17-.13.13-.25.26-.5.39-.74.07.05.13.1.2.15-.14.24-.28.48-.42.72ZM130.18,72.62c0,.24.03.44-.03.54-.09.14-.26.21-.4.3-.03-.13-.11-.29-.06-.4.05-.12.2-.2.49-.45ZM129.37,74.84c-.21.57-.38,1.03-.58,1.58-.36-.78.02-1.15.58-1.58ZM129.44,71.09c-.05.25-.11.51-.16.76-.11-.01-.32-.02-.32-.04.03-.24.1-.48.16-.72.11,0,.21,0,.32,0ZM128.09,71.46c-.18.5-.32.87-.49,1.32q-.26-.65.49-1.32ZM127.31,69.69c.07.19.15.3.13.35-.29.58-.29.58-.94.49.27-.27.54-.55.82-.83ZM126.56,67.99c.06.05.05.26.02.4-.01.06-.18.19-.2.17-.07-.07-.11-.19-.25-.49.21-.05.36-.13.43-.08ZM125.63,66.35c.06.03.12.06.19.09-.14.37-.27.75-.41,1.12-.11-.06-.22-.11-.33-.17.18-.35.37-.7.55-1.04ZM124.42,62.87c-.33.9-.64,1.75-.96,2.61.14-.94-.33-2.1.96-2.61ZM122.09,61.97c-.31.68-.5,1.09-.68,1.49-.2-.61-.1-1.06.68-1.49ZM120.66,58.24c-.3.73-.49,1.22-.75,1.85q-.28-.88.75-1.85ZM117.49,56.16c-.3.74-.5,1.32-.99,1.38-.04-.15-.09-.31-.13-.47.33-.27.66-.54,1.12-.91ZM113.65,55.15c-.1-.08-.2-.16-.29-.24.3-.52.61-1.04,1.08-1.84.09,1.19-.1,1.8-.78,2.08Z"/>
        <path class="cls-1" d="M98.1,18.74c.19-.47.39-.93.58-1.4.1.04.21.08.31.12-.19.46-.38.91-.58,1.37.72.13,1.43.28,2.15.44,0-.01,0-.03,0-.04,0-.07.21-.18.33-.27.08.04.16.08.24.12-.03.1-.06.2-.1.29.77.17,1.54.35,2.3.55.01-.04.02-.08.03-.12.07-.26.35-.47.69-.59-.1.27-.2.55-.3.82,1.51.4,3.02.85,4.53,1.34.06-.09.11-.17.17-.26.04.04.09.08.13.12-.04.06-.08.13-.12.19.71.24,1.42.48,2.13.74.36.13.72.27,1.08.41.07-.14.15-.28.22-.43,0-.01,0-.02,0-.03,0-.01.01-.03.02-.04-.27-.49-.26-.5.43-1.18-.19.52-.31.85-.43,1.18,0,0,0,.01,0,.02h0s-.02.04-.03.06c-.05.15-.07.31-.08.48.28.11.57.22.85.34.04-.36.15-.48.59-.97-.05.6-.07.73-.35,1.07,2.06.83,4.07,1.75,6.02,2.74.17-.13.36-.26.53-.46-.04.26-.09.47-.16.65.65.33,1.28.68,1.91,1.03.05-.05.09-.1.13-.14.08.07.16.15.24.22-.02.03-.04.07-.05.1.63.35,1.25.71,1.87,1.08-.04-.04-.08-.08-.12-.12.16-.26.31-.52.47-.79.07.09.14.17.22.26-.18.22-.36.44-.54.67.32.19.64.39.96.59.03-.05.05-.1.08-.16.1.07.19.14.29.2-.03.05-.05.09-.08.14.59.37,1.18.75,1.75,1.14.19-.27.42-.51.63-.76.07.1.13.19.2.29-.15.22-.3.44-.48.7.54.37,1.08.74,1.61,1.11-.04-.27.13-.59.36-.95.26-.4.65-.98.61-1.31-.04-.37.02-.61.14-.79-1.56-1.09-3.16-2.12-4.81-3.1-.06.28-.11.52-.16.78-.35-.43-.46-.57-.21-1.01-.59-.34-1.18-.68-1.78-1.01.01.02.03.05.04.07-.18.25-.35.51-.53.76-.06-.06-.12-.12-.19-.18.16-.25.32-.5.49-.76-2.7-1.48-5.52-2.82-8.45-3.99.08.52-.08.83-.48.98-.09-.08-.18-.17-.27-.25.18-.27.36-.54.54-.81-.66-.26-1.33-.52-2-.77-1.44-.53-2.89-1.01-4.34-1.45-.21.41-.43.84-.72,1.41-.15-.87-.16-.97.38-1.52-.79-.24-1.58-.45-2.37-.66.05.05.1.09.16.14-.12.2-.24.4-.38.59-.02.02-.12-.06-.18-.1.13-.21.26-.43.39-.64-1.31-.35-2.63-.66-3.95-.93-.25.58-.51,1.15-.76,1.73.04-.48.24-1.17.5-1.79-.33-.07-.65-.13-.98-.19-.07.12-.13.23-.2.35-.05-.03-.11-.06-.17-.09.05-.1.09-.2.14-.3-.67-.13-1.34-.25-2.02-.36-.09.11-.2.21-.3.27-.07.04-.25-.09-.26-.2,0-.05,0-.1,0-.16-.27-.04-.54-.08-.81-.12-.22.48-.34.76-.46,1.03-.06-.01-.12-.03-.18-.04.05-.21.06-.43.15-.61.06-.12.16-.21.34-.4-.84-.12-1.68-.22-2.52-.31-.15.27-.29.55-.44.82-.1-.08-.21-.16-.31-.23.14-.21.27-.41.41-.62-.33-.03-.65-.07-.98-.1-.39,1.01-.77,2.03-1.16,3.05,2.53.2,5.07.53,7.6.99-.05-.02-.1-.04-.15-.07ZM128.34,28.88c.06.03.12.06.18.09-.13.3-.25.6-.38.9-.07-.04-.15-.08-.22-.12.14-.29.28-.58.42-.87ZM125.74,26.44c-.18.31-.36.62-.65,1.12-.21-.91.18-1.05.65-1.12ZM122.86,26.07c.08-.14.22-.23.33-.34.04.04.09.07.13.11-.17.3-.34.61-.51.91-.06-.04-.11-.07-.17-.11.07-.19.12-.4.22-.56ZM121.12,24.69c-.16.43-.32.86-.48,1.29-.42-.79.12-.97.48-1.29ZM120.31,23.11c-.21.36-.42.72-.73,1.27-.2-.87.33-1.04.73-1.27ZM117.5,22.5c-.04.53-.12,1-.79.84.34-.37.57-.6.79-.84ZM111.43,19.2c.06.03.12.06.18.09-.14.3-.29.6-.43.9-.05-.03-.1-.05-.15-.08.13-.31.27-.62.4-.92ZM109.94,20.12c.04.06.07.11.11.17-.11.22-.21.44-.32.65-.05,0-.1-.01-.16-.02.02-.16.01-.33.07-.47.06-.13.19-.22.3-.33ZM107.33,19.73c.08-.09.22-.08.47-.15-.17.32-.24.52-.36.66-.04.05-.18-.05-.28-.08.05-.15.08-.33.17-.43ZM95.98,17.89c.03-.14.04-.28.09-.41.04-.1.13-.17.19-.26.05.02.1.05.15.07-.14.2-.29.4-.43.59Z"/>
        <path class="cls-1" d="M99.54,168.47c-.06-.84.21-1.51.65-2.23.06-.1.09-.22.11-.35-.79.17-1.58.32-2.37.46-.51,1.04-.45,2.31-1.31,3.32-.41-.83.39-1.24.55-1.82.13-.47.25-.95.37-1.43-1.71.3-3.44.54-5.18.72-.35,1.06-.69,2.14-1.03,3.24,1.15-.1,2.3-.22,3.44-.37.06-.17.17-.34.33-.51.07-.08.31-.06.34.02.05.14.07.27.07.4,1.24-.17,2.47-.38,3.69-.61.13-.29.38-.61.36-.83ZM92.69,169.99c-.47-.96.21-1.33.64-1.75-.19.51-.38,1.03-.64,1.75ZM94.35,168.62c-.08-.04-.15-.08-.23-.12.14-.3.29-.6.43-.9.07.04.14.08.21.11-.14.3-.27.61-.41.91ZM95.82,167.81s-.15-.14-.14-.16c.12-.24.25-.47.38-.71.08.07.16.15.25.22-.16.22-.32.44-.49.65ZM98.04,168.79c.32-.63.46-.9.59-1.17-.02.24-.03.48-.07.72-.01.06-.13.11-.53.44Z"/>
        <path class="cls-1" d="M97.56,81.3l7.95,2.92c.11-.4.42-.7.6-1.03l-8.24-3.02c-.11.38-.21.76-.31,1.14Z"/>
        <path class="cls-1" d="M107.18,50.15s0,0,0,.01c0,0,0,.02,0,.02.23.46.18.88.02,1.32,1.41.77,2.77,1.61,4.08,2.51.08-.95.22-.99,1.15-1.2-.38.57-.63.95-.91,1.36.26.18.52.37.78.55.07-.13.15-.26.24-.38.16-.21.14-.74.12-1.1-.04-.73.22-1.14.85-1.51-.31-.22-.63-.43-.95-.65,0,0,0,.01,0,.02-.07-.04-.14-.08-.21-.12,0-.01.01-.02.02-.03-.65-.43-1.31-.85-1.98-1.25-.11.23-.22.47-.33.7-.06,0-.12-.01-.19-.02.02-.21,0-.44.09-.62.04-.08.09-.16.16-.23-.62-.36-1.24-.71-1.87-1.05-.12.76-.5,1.25-1.04,1.65ZM111.08,51c.05.06.1.13.15.19-.22.3-.43.6-.65.9-.07-.1-.15-.19-.22-.29.24-.27.48-.54.72-.81ZM108.6,50.81c-.16.3-.32.59-.57,1.05-.22-.74.03-1.02.57-1.05Z"/>
        <path class="cls-1" d="M85.4,17.45c-.02.06-.06.1-.11.15.73,0,1.47.02,2.21.04.11-.22.36-.34.69-.47-.1.18-.18.34-.26.49.72.03,1.44.07,2.16.12.44-1.02.87-2.03,1.31-3.04-.37-.03-.73-.06-1.1-.09-.11.23-.22.47-.35.76-.06-.31-.09-.57-.07-.79-.26-.02-.52-.04-.77-.05-.16.43-.36.84-.69,1.23-.21-.59.07-.93.33-1.25-.75-.04-1.5-.06-2.24-.08-.36.99-.72,1.98-1.1,2.97ZM89.31,16.29c.09.06.17.13.25.2-.18.37-.35.73-.53,1.1-.13-.09-.25-.19-.38-.28.22-.34.44-.67.66-1.01ZM86.62,16.73c-.07-.12-.15-.24-.22-.37.32-.37.64-.74,1.1-1.26,0,1.07-.24,1.56-.88,1.63Z"/>
        <path class="cls-1" d="M95.65,79.35c-.1.17-.2.34-.31.5-.07-.07-.13-.15-.2-.22.1-.12.2-.24.3-.36l-4.61-1.69s.04.08.07.12c-.14.13-.28.25-.42.37,0,0-.06-.09-.06-.11.09-.15.19-.29.28-.43l-1.01-.37c-.12.37-.24.75-.36,1.12l7.91,2.9c.16-.37.31-.73.46-1.08l-2.05-.75Z"/>
        <path class="cls-1" d="M126.89,73.88c-.19-.42-.38-.83-.58-1.24-.14.32-.28.64-.43.96-.1-.06-.21-.12-.31-.17.18-.31.35-.62.53-.92.07.05.14.09.2.14-1.64-3.4-3.68-6.59-6.09-9.49-.17.35-.34.71-.5,1.06-.35-.72-.02-.96.44-1.14-.31-.37-.62-.73-.94-1.08-.12.15-.25.28-.36.43-.08-.07-.15-.14-.23-.22.11-.16.21-.32.33-.49-.8-.89-1.64-1.75-2.52-2.58-.28.37-.5.66-.71.94.32.3.62.61.93.92.11-.07.28-.11.53-.17-.1.12-.21.25-.32.38.27.28.54.56.8.85.06-.07.11-.15.17-.22.06.07.11.14.16.21-.06.06-.12.12-.18.18.93,1.02,1.81,2.08,2.65,3.17.12-.17.34-.31.75-.55-.19.35-.34.63-.49.9.22.29.43.59.65.89,0,0,0-.02.01-.03.11.09.22.17.32.26-.03.05-.06.09-.08.14.23.33.45.65.66.99.14-.3.28-.6.42-.89.02,0,.04.01.06.02-.13.35-.25.69-.38,1.04,1.5,2.3,2.79,4.74,3.85,7.29.03-.12.06-.24.08-.37.06-.39.3-.78.54-1.17ZM125.04,72.06c-.09-.04-.17-.08-.26-.12.14-.31.27-.61.41-.92.07.03.13.06.2.09-.12.32-.23.63-.35.95Z"/>
        <path class="cls-1" d="M156.71,59.25c.1.21.18.41.28.62.08-.41.2-.8.51-1.18.06-.07.09-.16.12-.27-.15-.32-.31-.64-.46-.97-.21.31-.43.63-.76,1.13.11.22.21.44.32.66Z"/>
        <path class="cls-1" d="M157.53,61.09c.66,1.52,1.26,3.05,1.82,4.59.02-.1.04-.2.06-.31.07-.39.27-.84.49-1.17.04-.05.07-.1.1-.15-.15-.39-.3-.77-.45-1.16-.2.37-.56.6-.85,1.01.03-.75.3-1.15.62-1.59-.43-1.06-.89-2.12-1.37-3.17-.03.2-.05.4-.06.61-.02.43-.17.88-.35,1.34Z"/>
        <path class="cls-1" d="M61.1,168.23c-.12.38-.24.75-.36,1.12.29.09.58.18.88.26.04-.26.15-.4.63-1.03-.12.48-.21.82-.29,1.13.29.08.57.17.86.26.16-.36.3-.72.43-1.1-.72-.2-1.43-.42-2.15-.64Z"/>
        <path class="cls-1" d="M151.67,50.01c.12-.1.25-.19.42-.27-.08.2-.16.38-.24.56.2.32.4.64.59.97.06-.09.12-.18.19-.27,0,.24,0,.41-.02.55.3.5.59.99.88,1.5.02,0,.03,0,.05-.01,0,.04,0,.07,0,.11,1.01,1.76,1.95,3.57,2.83,5.43-.02-.82.19-1.17.74-1.18-.25-.52-.51-1.03-.77-1.54-.07.2-.14.39-.22.59-.02.06-.23.06-.67.16.26-.39.51-.73.72-1.07-.19-.37-.38-.73-.58-1.09-.18.22-.37.47-.63.8-.07-.74.13-1.04.46-1.12-.23-.42-.45-.83-.69-1.24-.08.17-.16.33-.23.49-.19-.42-.2-.71,0-.9-.44-.76-.88-1.52-1.34-2.26,0,0,0,.02-.01.03,0-.03-.01-.05-.02-.08-.54-.87-1.09-1.72-1.66-2.57-.15.41-.35.8-.66,1.13.28.43.56.86.84,1.3Z"/>
        <path class="cls-1" d="M147.47,44.01c.82,1.07,1.62,2.16,2.4,3.28.12-.19.24-.39.36-.58.05.05.1.1.15.15-.13.21-.25.41-.38.62.24.34.47.69.7,1.04.23-.4.48-.78.62-1.18-.52-.77-1.05-1.54-1.6-2.29-.12.35-.35.64-.66.95-.29-.7,0-1.02.3-1.43-.5-.68-1.01-1.34-1.53-2-.04.48-.16.97-.35,1.45Z"/>
        <path class="cls-1" d="M142.41,38.08c.14-.36.52-.61.58-.97,0-.03.02-.07.02-.1-.3-.31-.59-.62-.89-.93-.08.29-.1.46-.18.54-.09.09-.24.14-.34.12-.04,0-.06-.31-.03-.34.13-.12.28-.19.53-.33-.29-.29-.58-.58-.87-.86-.18.41-.35.8-.52,1.14.57.57,1.14,1.15,1.69,1.74Z"/>
        <path class="cls-1" d="M160.12,67.9c.11-.37.13-.76-.04-1.19.24-.22.46-.41.68-.6-.16-.46-.33-.91-.5-1.37-.2.57-.41,1.15-.62,1.73.17.48.33.96.48,1.43Z"/>
        <path class="cls-1" d="M142.74,38.43c.82.88,1.62,1.78,2.4,2.7.11-.46.36-.72.71-.98-.27-.31-.53-.62-.8-.93,0,.02-.01.04-.02.06-.02.04-.14.01-.22.02.02-.1.03-.2.05-.3-.52-.59-1.05-1.17-1.59-1.74-.11.4-.25.8-.53,1.16Z"/>
        <path class="cls-1" d="M87.66,172.83c-.02.06-.04.12-.06.18.32-.01.64-.03.97-.04.13-.12.29-.23.49-.33-.03.11-.06.2-.09.3.32-.02.65-.03.97-.05,0-.03,0-.05,0-.07-.03-.29.34-.75.57-1.15-.83.06-1.66.11-2.49.15-.12.34-.24.67-.35,1.01Z"/>
        <path class="cls-1" d="M33.47,154.1c-.05.16,0,.35.04.53.05.04.09.07.14.11.25-.3.51-.6.76-.89-.22-.18-.45-.37-.67-.55-.09.27-.18.54-.27.81Z"/>
        <path class="cls-1" d="M138.94,34.63c.22.21.45.42.67.63.07-.07.14-.14.21-.21-.02.12-.03.24-.05.35.27.26.53.52.79.78.16-.4.32-.81.45-1.21-.32-.31-.64-.62-.97-.93-.03-.01-.06-.02-.1-.03,0-.03-.01-.05-.02-.08-.18-.17-.36-.35-.55-.52-.07.29-.15.57-.26.85-.05.14-.11.26-.17.36Z"/>
        <path class="cls-1" d="M138.44,34.16c.24-.32.5-.63.68-.97-.33-.3-.67-.61-1.01-.9-.1.54-.18.98-.26,1.35.2.18.4.35.59.53Z"/>
        <path class="cls-1" d="M43.24,160.13c-.07.08-.14.16-.21.23-.05-.07-.1-.14-.15-.2.05-.06.09-.11.13-.17-.58-.36-1.16-.73-1.74-1.1-.07.41-.25.73-.54,1.05,1,.65,2.01,1.28,3.04,1.88.18-.35.37-.7.53-1.05-.36-.21-.71-.42-1.06-.63Z"/>
        <path class="cls-1" d="M57.26,166.92c-.33-.12-.65-.25-.98-.37-.07.18-.13.35-.19.52-.07-.04-.16-.06-.18-.12-.09-.22-.12-.41-.1-.57-.7-.28-1.4-.56-2.1-.85-.11.08-.26.14-.49.21-.05-.1-.1-.19-.14-.29.04-.05.08-.1.12-.15-.58-.25-1.16-.51-1.73-.77-.12.23-.22.43-.33.64-.22-.47-.31-.68-.18-.88-.59-.28-1.18-.56-1.77-.86-.09.21-.18.42-.27.64-.12-.06-.23-.13-.35-.19.11-.2.23-.39.34-.59-.66-.33-1.31-.67-1.96-1.02-.18.4-.39.75-.61,1.01.41.22.82.44,1.23.65.12-.07.27-.13.44-.19-.07.12-.12.23-.18.33.61.31,1.23.62,1.85.92.06-.1.12-.19.18-.29.06.05.12.1.17.15-.05.08-.09.16-.14.24.67.32,1.35.63,2.04.94.1-.14.22-.27.35-.39,0,.18-.02.35-.05.52.66.29,1.32.57,1.98.84.11-.48.45-.63.94-.83-.12.37-.23.72-.34,1.08.6.24,1.21.48,1.82.7.12-.39.29-.76.62-1.02Z"/>
        <path class="cls-1" d="M60.76,168.12c-.7-.22-1.41-.46-2.11-.71-.09.11-.19.22-.31.33-.07-.18-.11-.34-.11-.48-.24-.09-.49-.17-.73-.26-.05.43-.19.79-.4,1.1,1.06.39,2.12.75,3.19,1.09.17-.35.33-.71.47-1.08ZM59.24,168.59c.15-.17.29-.34.44-.52.04.06.08.13.12.2-.14.17-.28.35-.42.52-.05-.07-.09-.13-.14-.2Z"/>
        <path class="cls-1" d="M135.52,31.61c.16-.22.39-.42.66-.67-.13.37-.24.65-.34.94.59.5,1.18,1.01,1.76,1.53.16-.36.32-.74.49-1.14-.34-.3-.68-.59-1.02-.88-.03.02-.06.05-.1.07.01-.04.03-.08.04-.12-1.26-1.08-2.56-2.12-3.89-3.11-.21.4-.38.73-.55,1.05,1,.76,1.99,1.53,2.95,2.34Z"/>
        <path class="cls-1" d="M44.5,160.88c-.13.37-.31.72-.58,1.02.7.41,1.41.82,2.13,1.21.21-.33.43-.66.62-1-.73-.4-1.45-.81-2.17-1.23Z"/>
        <path class="cls-1" d="M145.35,41.38c.33.39.65.78.97,1.17.05-.13.09-.26.14-.39.1.05.19.1.29.14-.08.16-.16.32-.24.48.25.31.5.63.74.95.26-.45.32-.95.34-1.47-.51-.64-1.03-1.28-1.57-1.91-.14.49-.34.81-.67,1.03Z"/>
        <path class="cls-1" d="M41,158.71c-.29-.19-.59-.39-.88-.58-.08.13-.18.29-.29.48.02-.29.03-.49.04-.65-.6-.41-1.19-.83-1.78-1.26-.18.28-.38.58-.63.97-.04-.76-.04-.9.32-1.2-.35-.25-.69-.51-1.03-.76-.08.09-.16.19-.26.31.01-.17.01-.35.01-.5-.59-.45-1.18-.92-1.76-1.39-.11.34-.23.71-.37,1.14-.1-.05-.18-.1-.27-.15.34.27.68.55,1.02.81.07-.09.14-.18.21-.27.04.07.09.14.13.21-.05.07-.11.14-.16.2.31.24.62.49.94.73.02-.03.05-.07.06-.1.09.04.18.09.27.13-.02.06-.03.12-.05.17.62.47,1.26.92,1.9,1.37.1-.18.2-.36.31-.55.06.04.13.07.19.11-.09.2-.17.4-.26.6.6.42,1.21.83,1.82,1.23.05-.46.26-.76.53-1.06Z"/>
        <path class="cls-1" d="M65.98,169.59s-.08.09-.12.14c-.01.02-.11-.12-.19-.21-.71-.18-1.42-.36-2.13-.56-.1.24-.19.49-.27.74-.04.12-.06.25-.08.38.27.08.54.15.81.22,0,0,0,0,0-.01.04-.54.32-.78.83-.83-.12.33-.23.62-.36.97.64.17,1.29.33,1.93.48.13-.4.44-.48.94-.53-.08.24-.16.46-.24.69.27.06.54.12.82.18.16-.37.33-.73.51-1.09-.82-.17-1.64-.36-2.46-.57Z"/>
        <path class="cls-1" d="M116.54,165.2c-4.27,1.87-8.65,3.35-13.09,4.44-.11.12-.21.24-.32.36,0,0-.07-.09-.06-.09.05-.07.09-.14.14-.21-1.81.44-3.63.81-5.45,1.11-.1.2-.18.38-.27.55-.09-.18-.15-.34-.18-.48-1.33.21-2.66.39-3.99.54,0,.01-.02.02-.03.03,0,0-.01-.02-.02-.03-.33.04-.66.07-.99.1-.15.36-.29.69-.45,1.05-.25-.56-.3-.68.14-1.02-.42.04-.84.07-1.26.1.03.02.06.03.1.05-.12.38-.24.77-.36,1.15.8-.06,1.6-.13,2.4-.21.07-.12.14-.24.22-.38.02.15.03.27.05.35.34-.04.69-.07,1.03-.11.05-.16.24-.28.69-.53-.08.17-.15.32-.22.47,1.25-.16,2.49-.34,3.73-.55.07-.11.14-.22.21-.34.03.1.04.2.06.29.27-.05.54-.09.81-.14.04-.42.29-.68.86-.77-.13.26-.23.47-.33.67,1.88-.37,3.76-.8,5.62-1.3.02-.04.04-.08.07-.12.04.03.07.05.11.08.42-.11.83-.23,1.25-.35.07-.49.48-.71.75-1.12,0,.35-.01.66-.11.93,2.92-.87,5.81-1.92,8.65-3.13.17-.46.3-.83.43-1.17-.05-.11-.1-.18-.16-.23Z"/>
        <path class="cls-1" d="M117.72,165.16c-.35.41-.7.82-1.1,1.28.35-.15.69-.31,1.04-.46.03-.27.06-.54.09-.8-.01,0-.02,0-.03-.02Z"/>
        <path class="cls-1" d="M71.42,170.73s-.01.03-.02.05c-.12.36-.21.72-.31,1.09.3.05.6.1.9.15.12-.08.27-.16.44-.24-.05.11-.09.2-.13.3.2.03.4.06.61.09.14-.38.31-.75.47-1.12-.66-.1-1.31-.2-1.97-.31Z"/>
        <path class="cls-1" d="M70.74,170.78c.01-.05.03-.1.04-.15-.69-.13-1.38-.26-2.08-.4-.06.39-.12.78-.21,1.16.27.06.54.11.81.16.09-.2.18-.41.27-.61.1.04.2.09.3.13-.06.19-.12.37-.18.56.24.05.48.1.72.14.12-.32.23-.64.32-.98Z"/>
        <path class="cls-1" d="M79.73,171.72c-.27-.02-.55-.04-.82-.06-.13.4-.26.78-.38,1.15.27.02.55.04.82.06.11-.35.23-.69.34-1.04.01-.04.03-.08.04-.12Z"/>
        <path class="cls-1" d="M74.99,171.27c-.08.14-.17.29-.27.45.01-.19.02-.34.03-.48-.28-.04-.57-.08-.85-.12-.13.38-.25.75-.37,1.13.49.07.98.14,1.47.2,0,0,0,0,0,0,0,0,0,0,0,0,.16.02.31.04.47.06.15-.38.3-.75.45-1.13-.32-.04-.63-.07-.95-.11Z"/>
        <path class="cls-1" d="M21.31,43.55c.53-.51.89-1.04.94-1.71-.69.85-1.37,1.72-2.02,2.61-.04.09-.08.18-.12.27-.01-.02-.02-.04-.04-.05-.7.95-1.38,1.91-2.03,2.88.02.03.04.06.07.09-.2.27-.39.55-.66.91,0-.03-.01-.05-.02-.07-3.31,5.07-6.06,10.55-8.2,16.37-1.56,4.26-2.75,8.59-3.58,12.97.05,0,.09,0,.14,0-.02.21,0,.43-.06.62-.05.15-.17.29-.27.43-.37,2.1-.65,4.21-.85,6.32,0,0,0-.01.01-.02.06.37.11.73.18,1.19-.12,0-.22,0-.3-.01-.09,1.08-.15,2.17-.19,3.25.14-.16.35-.34.68-.62-.29.57-.49.94-.71,1.37-.1,3.4.03,6.8.36,10.19.12-.08.22-.16.28-.14.07.02.13.25.09.34-.05.11-.22.24-.3.23,0,0-.02-.01-.02-.02.19,1.79.44,3.57.75,5.34.09-.09.18-.17.27-.26.04.07.08.14.13.2-.11.14-.22.28-.33.43.53,2.97,1.23,5.91,2.1,8.83.14-.06.31-.12.52-.16-.15.3-.26.53-.35.72.54,1.75,1.14,3.5,1.8,5.22.03-.03.06-.07.1-.11.03.24.08.4.05.49.6,1.54,1.24,3.06,1.94,4.57.09-.13.19-.26.28-.38.05.05.09.1.14.15-.1.15-.21.31-.31.46.21.46.43.91.65,1.36.05-.07.09-.14.13-.2.05.06.11.13.16.19-.06.09-.12.17-.18.26.25.5.5,1,.76,1.5.09-.14.18-.27.28-.41,0-.01.16.12.16.13-.09.19-.19.37-.29.56,1.45,2.79,3.06,5.46,4.8,8.03.07-.2.11-.44.23-.58.09-.12.25-.18.56-.35-.3-.44-.59-.88-.88-1.33-.13.3-.35.6-.68.92.16-.49.3-.91.43-1.31-.21-.34-.43-.67-.63-1.01-.05.15-.1.3-.15.45-.1-.05-.19-.09-.29-.14.09-.19.19-.38.28-.57-.58-.95-1.14-1.91-1.68-2.89-.02.03-.04.05-.07.08-.06-.06-.12-.13-.19-.19.03-.06.06-.12.1-.18-.22-.39-.43-.79-.64-1.18,0,0,0,0,0,0,0,0,0-.01,0-.02-.54-1.02-1.05-2.05-1.54-3.1-.08-.05-.15-.09-.23-.14.03-.06.05-.11.08-.17-.04-.09-.09-.19-.13-.28-1.85-4-3.35-8.11-4.51-12.27-.05.02-.09.04-.14.06.01-.1.03-.2.05-.36,0,0,0,0,0,0-.37-1.35-.7-2.7-1-4.06-.12.44-.25.88-.39,1.37-.55-.79-.09-1.06.1-1.43.07-.13.13-.29.19-.44-.3-1.42-.56-2.84-.78-4.27-.06.08-.13.16-.2.24-.15-.62-.2-.82.05-1.22-1.11-7.88-1-15.88.31-23.78-.18.5-.33.91-.53,1.44-.13-.89-.13-.91.55-1.59.1-.6.21-1.19.32-1.78-.02-.01-.03-.02-.05-.03.03-.05.05-.09.08-.14.81-4.17,1.95-8.31,3.45-12.38,1.16-3.16,2.5-6.21,4.02-9.16.05-.42.23-.71.49-.93.32-.6.65-1.2.98-1.79-.07.08-.13.16-.21.23-.01.01-.1-.12-.15-.18.15-.19.29-.38.44-.58.04.05.09.11.13.16,2.14-3.73,4.56-7.25,7.25-10.56.17-.3.36-.62.58-1,.03.08.04.15.05.22,1.93-2.3,3.98-4.49,6.16-6.56.1-.21.19-.41.3-.61,0-.01.12.06.22.12,6.08-5.67,13.09-10.4,20.85-13.99.52-.24,1.05-.47,1.57-.7.04-.35.29-.58.76-.82-.1.23-.19.43-.27.61.53-.23,1.07-.46,1.61-.67-.04-.02-.09-.06-.13-.09.06-.13.13-.27.21-.43.05.11.12.18.11.25-.01.08-.07.18-.13.24,4.69-1.89,9.5-3.32,14.37-4.28,0-.06.01-.11.03-.17.02-.06.18-.15.21-.12.05.04.07.12.1.22,3.2-.62,6.43-1.03,9.67-1.25.1-.1.26-.18.47-.24-.03.08-.05.15-.08.22.36-.02.71-.04,1.07-.06.12-.23.24-.46.35-.7.08.07.16.13.24.2-.11.16-.21.32-.32.48.84-.04,1.67-.06,2.51-.07.03-.08.07-.17.1-.25.09.04.19.08.28.12-.02.04-.03.09-.05.13,1.2,0,2.41,0,3.61.05.19-.16.37-.3.6-.49-.07.18-.12.36-.18.51.31.01.62.02.93.04-.03-.42,0-.84.7-1.13-2.22-.14-4.44-.19-6.66-.15-.06.21-.13.45-.22.75-.1-.42-.13-.55,0-.74-3.27.07-6.54.35-9.79.83-.04.12-.08.23-.13.35-.05-.02-.1-.04-.14-.05.03-.09.07-.18.1-.27-7.51,1.13-14.91,3.33-21.99,6.61-11.03,5.11-20.57,12.48-28.11,21.57-.4.89-.78,1.75-1.16,2.61-.12-.06-.25-.12-.38-.17ZM6.41,107.69c.06.1.12.21.17.31-.19.19-.37.39-.57.57,0,0-.13-.19-.12-.21.16-.23.34-.45.51-.68ZM5.14,91.17c.07.02.13.03.2.05-.08.32-.17.64-.25.96-.1-.02-.2-.05-.29-.07.11-.31.23-.63.34-.94ZM5.37,86.71c.08.05.16.1.24.15-.18.38-.36.76-.54,1.14-.11-.07-.23-.15-.34-.22.22-.36.43-.72.65-1.08ZM5.53,82.38c.08.05.16.1.25.14-.19.41-.39.81-.63,1.33-.59-1,.15-1.09.39-1.47ZM13.06,56.74c0,.13,0,.25-.01.38-.07.01-.18.06-.2.02-.03-.05,0-.18,0-.27.07-.04.14-.08.21-.13ZM12.54,59.05c-.16.29-.32.57-.47.86-.08-.04-.16-.09-.25-.13.13-.31.26-.62.39-.93.11.07.22.14.33.2ZM11.26,61.72c.05.04.1.09.15.13-.11.21-.22.43-.33.64-.08-.07-.15-.13-.23-.2.13-.19.27-.38.4-.57ZM10.43,64.04c.05.04.11.08.16.12-.22.44-.45.88-.67,1.33-.09-.08-.17-.17-.26-.25.26-.4.51-.8.77-1.2ZM9.56,66.72c-.12.95-.29,1.42-.86,1.72-.03-.82.49-.99.86-1.72ZM8.44,70.02c-.12.3-.25.59-.37.89-.09-.05-.18-.09-.27-.14.15-.29.3-.57.45-.86.07.04.13.07.2.11ZM5.99,76.41q.11-.86,1.04-1.53c-.43.63-.68,1.01-1.04,1.53ZM7.86,72.29c-.29.63-.51,1.1-.81,1.75-.23-.92-.2-1.48.81-1.75ZM19.06,47.41s-.09-.08-.14-.12c.07-.15.13-.34.23-.44.08-.09.22-.07.55-.16-.33.37-.49.55-.64.72ZM77.59,12.41c-.16.33-.32.65-.59,1.19-.18-.78.07-1.09.59-1.19ZM56.83,17.65c-.01.14,0,.29-.05.42-.02.06-.17.14-.22.12-.1-.04-.19-.15-.39-.33.45-.14.56-.17.66-.21ZM24.49,39.45c.06.04.13.07.19.11-.11.23-.22.47-.33.7-.06-.04-.13-.07-.19-.11.11-.24.22-.47.33-.7Z"/>
        <path class="cls-1" d="M83.41,171.87c-.16,0-.32,0-.48,0-.18.44-.37.84-.59,1.16.29,0,.58.01.87.02.01-.07.02-.14.01-.2-.05-.42.03-.72.19-.98Z"/>
        <path class="cls-1" d="M33.12,153.84c-.05-.39.02-.69.13-.96-.17-.14-.34-.29-.5-.43-.1.36-.21.72-.32,1.08-.02.05-.04.09-.07.14.23.2.47.4.71.6.05-.16.07-.3.06-.43Z"/>
        <path class="cls-1" d="M32.4,152.15c-.26-.23-.52-.47-.78-.7-.06.34-.09.6-.18.83-.09.22-.18.32-.26.35.24.21.48.43.72.64.3-.35.47-.69.5-1.12Z"/>
        <path class="cls-1" d="M80.96,171.79c-.2,0-.4-.02-.6-.03-.09.24-.19.47-.3.68-.08.14-.14.3-.19.46.24.01.48.03.71.04.1-.38.22-.77.37-1.16Z"/>
        <path class="cls-1" d="M86.81,171.86c-.14.39-.29.78-.49,1.19.28,0,.57-.02.85-.02.09-.39.13-.8.23-1.18-.2,0-.39.01-.59.02Z"/>
        <path class="cls-1" d="M86.23,171.87c-.3,0-.59,0-.89,0-.03.05-.05.09-.08.14-.01-.05-.02-.09-.03-.14-.36,0-.72,0-1.08,0-.13.39-.27.78-.4,1.17.26,0,.53,0,.79,0,.16-.08.36-.11.59-.08,0,.03-.02.05-.03.08.25,0,.5,0,.75,0-.02-.19-.03-.31.01-.41.1-.26.23-.52.35-.77Z"/>
        <path class="cls-1" d="M78.34,171.62c-.24-.02-.48-.05-.71-.07-.11.23-.22.46-.34.69-.19-.35-.31-.57-.31-.76-.16-.02-.33-.03-.49-.05-.12.4-.27.78-.48,1.13.63.07,1.26.13,1.9.19.03-.05.06-.11.08-.16.12-.32.25-.65.36-.98Z"/>
        <path class="cls-1" d="M160.82,70.13c.11-.09.24-.17.39-.26-.11.21-.2.4-.29.57.17.58.33,1.16.49,1.74.03-.04.07-.08.1-.11.05.11.09.22.14.32-.05.05-.1.1-.15.14.12.47.25.94.36,1.41.18-.22.42-.4.68-.58-.17.41-.33.82-.51,1.28.07.31.15.63.22.94.21-.15.4-.29.62-.44,0,.62-.09,1.04-.43,1.31.08.38.16.75.23,1.13.03-.05.06-.09.09-.12.39-.42.64-.86.81-1.35-.15-.7-.3-1.4-.47-2.09-.07-.05-.14-.21-.13-.3,0-.04.02-.06.03-.1-.12-.47-.24-.95-.36-1.42-.05.04-.09.07-.14.11-.08-.31-.08-.55-.03-.75-.1-.37-.21-.74-.31-1.11-.09-.01-.18-.02-.27-.03.05-.14.1-.27.15-.41-.15-.5-.3-.99-.46-1.49,0,.02-.02.05-.03.07-.03.09-.23.11-.49.22.1-.35.19-.69.28-1.02-.14-.42-.28-.84-.42-1.26-.2.74-.37,1.41-.55,2.06.16.51.32,1.03.48,1.55Z"/>
        <path class="cls-1" d="M30.47,150.39c-.09.11-.18.22-.27.33-.02-.14-.1-.29-.06-.41.02-.05.04-.11.07-.16-1.34-1.27-2.64-2.6-3.89-3.96-.01,0-.03,0-.04.01,0-.02,0-.03,0-.05-2.61-2.85-5.01-5.9-7.19-9.14-.33.47-.49.72-.66.96-.06-.03-.12-.07-.18-.1,3.58,5.28,7.75,10.07,12.42,14.31.3-.3.54-.53.84-.82-.35-.32-.7-.64-1.05-.97ZM23.21,143.96c-.07-.03-.13-.05-.2-.08.11-.27.22-.55.33-.82.06.02.11.05.17.07-.1.28-.2.56-.31.83Z"/>
        <path class="cls-1" d="M81.91,172.61c.24-.19.37-.46.46-.76-.28,0-.57-.02-.85-.04-.15.4-.29.78-.42,1.16.23.01.46.02.7.03.02-.19.05-.34.12-.39Z"/>
        <path class="cls-1" d="M162.78,78.28c.32,1.73.58,3.47.79,5.21.1-.13.22-.27.41-.47-.08.61-.11.81-.35,1.12.12,1.08.22,2.16.29,3.24.04-.01.08-.03.12-.05-.04.06-.08.12-.12.17.05.77.08,1.55.11,2.32.1-.16.21-.32.31-.48.06.08.11.16.17.24-.16.21-.31.41-.47.62.29,9.98-1.31,20.02-4.86,29.67-1.61,4.38-3.57,8.56-5.85,12.51.01.01.02.02.04.03-.11.21-.21.42-.32.64-.03-.02-.05-.04-.08-.06-6.49,11-15.51,20.21-26.43,26.96-.03.32-.18.5-.6.97.08-.26.16-.51.24-.76-1,.61-2,1.2-3.03,1.76.06.03.12.07.18.1-.18.34-.35.68-.53,1.02-.08-.04-.15-.09-.23-.13.13-.29.25-.59.38-.88-1.59.87-3.22,1.7-4.88,2.47-.01,0-.02,0-.03.01-.11.21-.23.42-.34.63l.05-.03s0,0,0,0h0s0,.04,0,.05c.29.14.42.34.28.64.18-.08.36-.16.54-.24.27-.13.54-.26.81-.39-.06-.04-.13-.09-.19-.13.2-.35.4-.71.71-1.25.2.76-.08,1.04-.36,1.3,4.57-2.19,8.88-4.77,12.88-7.7.13-.18.25-.36.38-.54.04.05.08.1.12.15,0,.01-.02.03-.03.04,12.43-9.24,21.93-21.89,27.4-36.78,2.68-7.3,4.26-14.81,4.78-22.35-.05.04-.1.09-.15.13-.04-.08-.07-.15-.11-.23.09-.09.19-.19.28-.28.08-1.26.13-2.53.15-3.79-.01-.01-.03-.02-.04-.04.01-.02.03-.04.04-.06.01-.84.01-1.67,0-2.51-.22.47-.39.84-.64,1.39-.15-.79,0-1.16.64-1.51-.02-1.18-.07-2.37-.15-3.55-.07.08-.15.15-.24.22-.08-.06-.16-.11-.24-.17.14-.23.29-.46.43-.69-.12-1.73-.3-3.46-.54-5.18-.11.14-.25.3-.42.51-.08-.62.08-.98.31-1.27-.08-.54-.16-1.09-.26-1.63-.06.21-.1.35-.17.47-.09.15-.27.23-.62.51.15-.49.18-.71.28-.86.08-.13.21-.23.45-.44-.11-.65-.23-1.31-.36-1.96-.2.47-.42.91-.67,1.34-.12,0-.2-.02-.27-.05ZM124.34,162.38c-.13-.19-.23-.25-.22-.33.07-.53.33-.75.92-.89-.31.54-.5.87-.7,1.22ZM127.55,160.2c.02-.1,0-.22.05-.3.04-.06.14-.07.21-.1-.02.1,0,.23-.06.3-.04.06-.14.07-.21.1ZM129.02,159.43c.25-.42.5-.83.89-1.49-.09.94-.21,1.45-.89,1.49ZM152.12,135.46c-.07-.08-.14-.16-.21-.24.15-.18.31-.37.46-.55.05.05.09.09.14.14-.13.22-.26.43-.39.65ZM164.5,95.94s.07.03.11.04c-.07.18-.13.36-.2.54-.04-.01-.07-.02-.11-.04.07-.18.13-.36.2-.54ZM164.62,85.15c-.2.31-.41.61-.74,1.11-.07-.92.32-1.02.74-1.11Z"/>
        <path class="cls-1" d="M89.45,13.38c.81.05,1.63.11,2.44.19.08-.18.15-.35.23-.52.12.23.21.33.19.39-.02.06-.04.11-.06.17,1.72.17,3.43.39,5.14.67.03-.03.06-.06.1-.09,0,.04-.01.07-.02.1,1.17.19,2.34.41,3.51.66.12-.16.23-.28.34-.34-.06.13-.11.25-.17.38,2.4.51,4.79,1.14,7.17,1.88.04-.09.08-.17.12-.26.11.08.22.16.33.24-.03.04-.06.09-.08.13.67.21,1.34.43,2,.67.01-.03.02-.06.03-.09.04.01.09.03.13.04-.01.03-.02.06-.03.09.43.15.85.3,1.28.45,4.87,1.79,9.49,4.01,13.83,6.64.05-.19.08-.39.17-.56.08-.17.25-.28.37-.42.06.05.11.1.17.16-.16.32-.33.64-.49.96,2.12,1.29,4.17,2.68,6.14,4.15.14-.21.39-.44.84-.84-.42-.32-.85-.63-1.28-.94-.13.27-.25.54-.38.81-.07-.05-.14-.09-.21-.14.15-.26.3-.52.45-.78-2.04-1.46-4.16-2.83-6.35-4.1-.01.02-.02.04-.04.06-.08-.07-.17-.15-.25-.22,0,0,0,0,0,0-.57-.33-1.15-.65-1.73-.97-.11.19-.25.39-.39.6-.13-.3-.06-.55.07-.77-.65-.35-1.3-.68-1.95-1.01-.13.25-.26.51-.4.76-.07-.05-.13-.09-.2-.14.13-.24.26-.48.39-.72-1.95-.97-3.94-1.87-5.98-2.69-.06.14-.13.28-.2.45-.06-.25-.1-.43-.13-.58-.68-.27-1.37-.54-2.06-.79-.7-.26-1.41-.5-2.12-.74-.17.23-.36.49-.61.82-.05-.49,0-.8.16-.97-.68-.22-1.35-.44-2.03-.64-.01.27-.24.38-.91.7.22-.36.37-.61.5-.82-.66-.2-1.32-.38-1.99-.56-.13.19-.28.37-.49.53-.04-.24-.03-.46,0-.67-1.6-.42-3.21-.78-4.82-1.1-.03.06-.06.12-.1.18-.03-.08-.05-.15-.07-.22-2-.39-4.02-.71-6.03-.94-.11.29-.21.57-.31.86-.31-.07-.26-.41.17-.87-.92-.11-1.84-.2-2.77-.27-.08.04-.19.06-.27.09,0-.04,0-.07,0-.11-.32-.02-.64-.05-.96-.07-.17.39-.28.77-.39,1.15Z"/>
        <path class="cls-1" d="M22.68,99.06c-.09.07-.17.15-.26.22-.03-.07-.07-.14-.1-.2.1-.12.21-.25.31-.37-.18-.78-.73-1.46-1.54-1.76-1.27-.47-2.68.19-3.14,1.45-.47,1.27.19,2.68,1.45,3.14,1.27.47,2.68-.19,3.14-1.45.12-.34.16-.69.14-1.03ZM20.88,100.38c-.08-.06-.16-.12-.25-.18.16-.33.33-.66.49-.98.1.08.2.16.3.24-.18.31-.36.62-.54.92Z"/>
        <path class="cls-1" d="M128.8,141.69c1.27.47,2.68-.19,3.14-1.45.47-1.27-.19-2.68-1.45-3.14-1.27-.47-2.68.19-3.14,1.45s.19,2.68,1.45,3.14Z"/>
        <path class="cls-1" d="M41.92,46.9c.01-.58-.18-1.14-.53-1.58-.11.25-.22.5-.33.75-.09-.06-.17-.13-.26-.19.15-.23.3-.47.44-.7.01.01.03.02.04.03-.26-.28-.58-.52-.96-.66-.4-.15-.81-.17-1.2-.11-.16.21-.32.42-.47.63-.06-.07-.12-.14-.18-.22.08-.11.16-.21.24-.32-.68.23-1.26.74-1.53,1.47-.47,1.27.19,2.68,1.45,3.14,1.27.47,2.68-.19,3.14-1.45.01-.03.01-.07.03-.1-.12-.03-.25-.11-.42-.25.21-.17.38-.31.53-.43ZM37.62,48.09s-.18-.13-.17-.14c.14-.31.29-.61.45-.92.11.08.23.17.34.25-.2.27-.4.55-.61.81ZM40,48.75c-.06-.1-.12-.2-.17-.3.26-.29.52-.58,1.02-1.15-.29.85-.39,1.34-.85,1.45Z"/>
        <path class="cls-1" d="M148.03,89.29c.51.19,1.03.19,1.51.05.1-.15.21-.31.32-.46.07.08.13.16.2.24.49-.28.9-.71,1.11-1.29.47-1.27-.19-2.68-1.45-3.14-1.27-.47-2.68.19-3.14,1.45-.47,1.27.19,2.68,1.45,3.14ZM150.05,87.08c.25-.31.56-.55.84-.81.06.07.12.14.19.21-.21.4-.41.82-.65,1.19-.06.09-.36.09-.42,0-.07-.11-.04-.47.04-.57ZM149.16,87.29c.07.64-.17,1.04-.68,1.44-.31-.81.12-1.11.68-1.44Z"/>
        <path class="cls-1" d="M90.54,59.34h0c-.43-.27-.54-.67-.23-1.11-.3.08-.49.44-.3.74l.37.6c.05-.08.1-.16.15-.24h0Z"/>
        <path class="cls-1" d="M102.63,62.71s-.1-.08-.17-.11l-1.88-.71c-.26.8-.53,1.59-.82,2.38-.02.06-.07.1-.13.15l2.8-.89s.02,0,.03-.01c.05-.21.1-.42.13-.63,0-.07.02-.13.03-.19ZM101.3,63.56c-.07-.07-.13-.14-.2-.21.18-.25.36-.5.54-.76.04.02.07.05.11.07-.15.3-.3.59-.45.89Z"/>
        <path class="cls-1" d="M98.68,61.18c-.2-.07-.33-.27-.32-.48v-.28c-.07.42-.38.65-.54.94-.11-.07-.23-.14-.34-.21.24-.43.48-.85.81-1.45.04.12.07.23.08.33l.07-3.43s0-.07-.01-.1c-.1.22-.22.47-.36.77-.17-.56-.07-.88.13-1.1-.2-.12-.47-.11-.64.11l-2.59,3.19c-.13.16-.36.23-.55.15l-1.04-.37c-.1.24-.2.49-.31.74-.31-.39-.41-.52-.09-.89l-1.99-.72c-.14.32-.28.64-.43.96-.04.1-.08.2-.11.3l1.47,2.34c.2-.17.38-.32.61-.51-.12.4-.21.72-.39.86l.08.13c.11.18.1.4-.03.56l-.7.92c.13.7,0,1.13-.49,1.24-.08-.09-.16-.19-.24-.28l-1,1.32c-.26.34,0,.79.39.79.16-.11.33-.21.49-.32.02.07.04.13.06.2l3.51-.88c.2-.05.41.03.52.19l1.8,2.51c.03-.24.03-.49.12-.71.07-.17.26-.29.47-.51.03.26.1.42.06.52-.13.28-.31.53-.48.8-.04-.02-.09-.03-.14-.05l.52.72c.11.16.28.21.44.2.07-.1.14-.21.21-.31.03.06.06.12.09.18.09-.08.16-.19.17-.34l.22-4c.01-.21.15-.38.35-.45l.59-.19c.38-1.03.72-1.96,1.05-2.85l-1.5-.56ZM91.18,60.46c-.03-.14-.11-.38-.09-.39.22-.18.45-.34.68-.5.04.12.07.24.11.36-.23.18-.47.35-.7.53ZM97.68,62.24c-.36.85-.61,1.43-.97,2.27q-.14-1.15.97-2.27ZM95.96,66.92s-.35-.06-.36-.18c-.07-.49.11-.86.95-1.09-.26.58-.4.94-.58,1.27ZM97.52,66.05c0-.24-.04-.37-.01-.49.02-.08.12-.16.18-.23.05.09.17.2.15.28-.03.12-.16.23-.32.44ZM98.66,62.99c-.07-.14-.23-.32-.19-.41.09-.22.27-.39.55-.76.01.4.07.6.01.75-.07.17-.24.28-.37.42Z"/>
        <path class="cls-1" d="M86.23,59.73l-2.05-.77c-.2-.07-.33-.27-.32-.48v-.37c-.23-.14-.13-.41.02-.7l.02-1.16c.01-.47-.58-.69-.88-.32l-1.4,1.73c-.13.16-.36.23-.55.15l-.68-.25c.08.49-.27.74-.59,1,.12-.33.24-.66.39-1.07l-1.17-.42c-.44-.16-.84.33-.59.73l1.18,1.89c.11.18.1.4-.03.56l-.25.33s.03.06.02.08c-.08.13-.18.25-.27.37,0-.02-.02-.04-.04-.06l-.78,1.02c-.28.37.06.9.52.78l2.13-.53c.2-.05.41.03.52.19l1.28,1.79c.27.38.88.21.9-.26l.12-2.17c.01-.21.15-.38.35-.45l1.55-.49c.11-.19.22-.37.33-.56.08.08.16.16.24.23-.04.06-.08.12-.12.18l.12-.04c.45-.14.47-.77.02-.94ZM79.93,62.45c-.05-.05-.1-.11-.16-.16.16-.22.32-.45.47-.67.05.05.09.1.14.15-.15.23-.31.46-.46.69ZM82.55,58.59c-.03.31-.05.48-.06.65-.07-.09-.15-.18-.22-.27.06-.08.12-.16.29-.39ZM81.47,61.84c-.05-.07-.1-.13-.15-.2.19-.24.38-.48.57-.72.05.06.09.12.14.18-.19.25-.37.49-.56.74ZM82.78,62.22q.27-2.14,1.13-3.07c-.4,1.09-.8,2.18-1.13,3.07Z"/>
        <path class="cls-1" d="M73.08,59.42c0-.12.09-.23.2-.26l1.23-.39c.26-.08.27-.45.01-.55l-.92-.34c-.15.31-.31.64-.5,1.02-.07-.56-.06-.99.05-1.34,0-.02,0-.04,0-.05l.03-1.29c0-.19-.16-.3-.32-.29-.08.21-.15.41-.22.6-.02-.13-.04-.26-.06-.39l-.72.89c-.08.1-.21.13-.32.09l-.23-.08c-.05.08-.1.17-.15.25-.07-.05-.15-.09-.22-.14.03-.07.06-.14.09-.21l-.68-.25c-.26-.09-.49.19-.34.43l.68,1.09c.06.1.06.23-.01.33l-.76,1c-.17.22.04.53.3.46l1.23-.31c.12-.03.24.02.31.11l.74,1.03c.16.22.51.12.53-.15l.07-1.25Z"/>
        <path class="cls-1" d="M111.11,70.47l.8-.25c-.02-.08-.04-.15-.02-.22.03-.11.18-.2.34-.34.02.15.05.27.06.38.22-.24.17-.67-.19-.8l-1.7-.64c-.22.6-.34.93-.52,1.43-.29-.62-.13-.95.46-1.45l-.29-.11c-.2-.07-.33-.27-.32-.48l.05-2.23c.01-.47-.58-.69-.88-.32l-1.4,1.73c-.13.16-.36.23-.55.15l-2.06-.74c-.44-.16-.84.33-.59.73l1.18,1.89c.11.18.1.4-.03.56l-1.31,1.73c-.28.37.06.9.52.78l2.13-.53c.2-.05.41.03.52.19l1.28,1.79c.27.38.88.21.9-.26l.12-2.17c.01-.21.15-.38.35-.45l.66-.21c.1-.14.2-.28.3-.43.07.09.14.18.21.26ZM104.88,68.01c-.02-.09-.04-.18-.06-.27.18-.15.36-.3.54-.44.03.07.06.13.09.2-.19.17-.37.35-.56.52ZM106.41,71.76c-.08-.1-.16-.21-.25-.31.22-.26.43-.52.65-.77.05.06.11.13.16.19-.19.3-.37.6-.56.9ZM108.13,70.67c-.06-.1-.2-.27-.17-.3.13-.23.3-.44.46-.65.07.09.14.18.21.27-.16.23-.33.46-.49.69ZM109.18,67.97c-.05-.06-.09-.12-.14-.18.16-.22.31-.44.46-.66.07.09.14.17.2.25-.18.2-.36.39-.53.59ZM108.89,72.49c-.06,0-.12,0-.19,0,0-.23-.04-.48.04-.69.06-.16.26-.28.66-.7-.26.72-.39,1.05-.51,1.38Z"/>
        <path class="cls-1" d="M118.18,74.93c.2-.15.34-.33.45-.54l-.85-.32c-.12-.04-.19-.16-.19-.28h0c-.06-.06-.13-.12-.19-.18.07-.09.13-.19.2-.28l.02-.83c0-.28-.34-.4-.52-.19l-.12.14c-.19.64-.4,1.27-.68,1.85-.25.51-.34,1.13-.52,1.69l.09-.02c.12-.03.24.02.31.11l.74,1.03c.16.22.51.12.53-.15l.07-1.25c0-.12.09-.23.2-.26l.4-.13c0-.2,0-.36.06-.4ZM116.88,76.39c-.06-.04-.12-.08-.18-.12.15-.3.29-.61.44-.91.07.05.14.09.21.14-.16.3-.32.59-.47.89Z"/>
        <path class="cls-1" d="M118.97,74.53c-.06.2-.14.4-.22.6l.19-.06c.26-.08.27-.44.03-.54Z"/>
        <path class="cls-1" d="M115.61,74.18c-.02-.17.28-.47.44-.75-.03,0-.05,0-.08-.02l-1.19-.43c-.26-.09-.49.19-.34.43l.47.75s0,0,0,0c0,0,0,0,0,0l.21.34c.06.1.06.23-.01.33l-.76,1c-.17.22.04.53.3.46l.61-.15c.27-.62.46-1.25.36-1.96Z"/>
        <path class="cls-1" d="M67.02,122.51l3.79,1.42c.2.07.33.27.32.48l-.09,4.11c-.01.47.58.69.88.32l2.59-3.19c.13-.16.36-.23.55-.15l3.81,1.37c.44.16.84-.33.59-.73l-2.18-3.48c-.11-.18-.1-.4.03-.56l2.42-3.19c.28-.37-.06-.9-.52-.78l-3.92.98c-.2.05-.41-.03-.52-.19l-2.36-3.29c-.27-.38-.88-.21-.9.26l-.22,4c-.01.21-.15.38-.35.45l-3.91,1.24c-.45.14-.47.77-.02.94Z"/>
        <path class="cls-1" d="M62.74,113.38c-.2.05-.41-.03-.52-.19l-1.28-1.79c-.27-.38-.88-.21-.9.26l-.12,2.17c-.01.21-.15.38-.35.45l-2.13.68c-.45.14-.47.77-.02.94l1.96.73c.1-.16.2-.33.32-.53.1.36.09.61.03.8.04.07.07.16.06.24l-.05,2.23c-.01.47.58.69.88.32l1.4-1.73c.13-.16.36-.23.55-.15l2.06.74c.44.16.84-.33.59-.73l-1.18-1.89c-.11-.18-.1-.4.03-.56l1.31-1.73c.28-.37-.06-.9-.52-.78l-2.13.53ZM61.34,118.59c.09-.91.25-1.33,1.12-1.54-.45.63-.7.97-1.12,1.54ZM64.23,114.54c.03-.17.05-.35.11-.51.01-.04.14-.04.4-.09-.24.29-.37.45-.51.61Z"/>
        <path class="cls-1" d="M54.4,110.62c-.06-.1-.06-.23.01-.33l.76-1c.17-.22-.04-.52-.3-.46l-.54.14s.06.08.09.13c-.18.23-.35.45-.53.67-.05-.07-.1-.13-.15-.2.16-.19.31-.38.47-.58l-.57.14c-.12.03-.24-.02-.31-.11l-.74-1.03c-.16-.22-.51-.12-.53.15l-.07,1.25c0,.12-.09.22-.2.26l-1.23.39c-.26.08-.27.45-.01.55l1.18.44c.12.04.19.16.19.28l-.03,1.29c0,.28.34.4.52.19l.81-1c.08-.1.21-.13.32-.09l1.19.43c.26.09.49-.19.34-.43l-.68-1.09ZM52.21,110.61c.01-.18.03-.36.04-.54.06,0,.13,0,.19,0-.04.18-.08.37-.13.55,0,0-.11,0-.11,0Z"/>
        <path class="cls-1" d="M83.28,125.39l2.05.77c.2.07.33.27.32.48l-.05,2.23c-.01.47.58.69.88.32l1.4-1.73c.13-.16.36-.23.55-.15l2.06.74c.44.16.84-.33.59-.73l-1.18-1.89c-.11-.18-.1-.4.03-.56l1.31-1.73c.28-.37-.06-.9-.52-.78l-2.13.53c-.2.05-.41-.03-.52-.19l-1.28-1.79c-.27-.38-.88-.21-.9.26l-.12,2.17c0,.1-.04.19-.1.27.07-.02.16-.04.28-.07-.3.32-.45.48-.6.65.04-.14.08-.29.13-.42-.02,0-.04.02-.06.03l-2.13.68c-.45.14-.47.77-.02.94ZM89.54,123.58c0,.12,0,.25-.02.37,0,.02-.14.03-.21.05,0-.1.02-.19.02-.29.07-.04.14-.09.21-.13ZM88.21,124.26c.03.05.06.11.09.16-.14.17-.28.33-.43.5-.05-.08-.09-.15-.14-.23.16-.14.32-.28.48-.43Z"/>
        <path class="cls-1" d="M94.98,126.91l1.18.44c.12.04.19.16.19.28l-.03,1.29c0,.28.34.4.52.19l.81-1c.08-.1.21-.13.32-.09l1.19.43c.26.09.49-.19.34-.43l-.68-1.09c-.06-.1-.06-.23.01-.33l.76-1c.17-.22-.04-.53-.3-.46l-.84.21s0,.02,0,.03c-.04.08-.12.14-.19.21,0-.06-.01-.12-.02-.19l-.19.05c-.12.03-.24-.02-.31-.11l-.74-1.03c-.16-.22-.51-.12-.53.15l-.07,1.25c0,.12-.09.23-.2.26l-1.23.39c-.26.08-.27.45-.01.55ZM96.7,125.77c.08.09.17.17.16.19-.07.13-.15.24-.23.36-.05-.05-.15-.13-.13-.16.05-.13.13-.26.2-.39Z"/>
      </g>
      <g>
        <text class="cls-3" transform="translate(49.59 51.01) rotate(-35.43)"><tspan x="0" y="0">T</tspan></text>
        <text class="cls-3" transform="translate(58.68 44.38) rotate(-24.25)"><tspan x="0" y="0">a</tspan></text>
        <text class="cls-3" transform="translate(68.64 39.77) rotate(-12.52)"><tspan x="0" y="0">y</tspan></text>
        <text class="cls-3" transform="translate(79.72 37.48) rotate(-3.17)"><tspan x="0" y="0">l</tspan></text>
        <text class="cls-3" transform="translate(85.74 36.85) rotate(6.42)"><tspan x="0" y="0">o</tspan></text>
        <text class="cls-3" transform="translate(97.34 38.23) rotate(17.36)"><tspan x="0" y="0">r</tspan></text>
        <text class="cls-3" transform="translate(105.84 40.96) rotate(25.18)"><tspan x="0" y="0"> </tspan></text>
        <text class="cls-3" transform="translate(111.17 43.09) rotate(34.86)"><tspan x="0" y="0">S</tspan></text>
        <text class="cls-3" transform="translate(121.14 49.51) rotate(49.89)"><tspan x="0" y="0">w</tspan></text>
        <text class="cls-3" transform="translate(131.4 62.44) rotate(61.77)"><tspan x="0" y="0">i</tspan></text>
        <text class="cls-3" transform="translate(134.32 67.65) rotate(69.27)"><tspan x="0" y="0">f</tspan></text>
        <text class="cls-3" transform="translate(137.19 75.11) rotate(77.84)"><tspan x="0" y="0">t</tspan></text>
      </g>
      <g>
        <text class="cls-4" transform="translate(16.07 116.76) rotate(64.8)"><tspan x="0" y="0">A</tspan></text>
        <text class="cls-4" transform="translate(25.06 134.56) rotate(49.93)"><tspan x="0" y="0">p</tspan></text>
        <text class="cls-4" transform="translate(36.35 147.47) rotate(36.1)"><tspan x="0" y="0">p</tspan></text>
        <text class="cls-4" transform="translate(50.14 156.97) rotate(24.14)"><tspan x="0" y="0">r</tspan></text>
        <text class="cls-4" transform="translate(61.82 162.15) rotate(12.7)"><tspan x="0" y="0">o</tspan></text>
        <text class="cls-4" transform="translate(77.75 165.43) rotate(-.14)"><tspan x="0" y="0">v</tspan></text>
        <text class="cls-4" transform="translate(93.27 165.13) rotate(-12.54)"><tspan x="0" y="0">e</tspan></text>
        <text class="cls-4" transform="translate(108.46 161.53) rotate(-25.57)"><tspan x="0" y="0">d</tspan></text>
      </g>
      <text class="cls-2" transform="translate(34.96 85.51) rotate(20.15)"><tspan x="0" y="0">F</tspan><tspan class="cls-8" x="22.11" y="0">ro</tspan><tspan class="cls-7" x="57.45" y="0">ll</tspan><tspan class="cls-6" x="78.08" y="0">y</tspan></text>
    </g>
  </g>
</svg>